<?xml version="1.0" standalone="no"?>
<!DOCTYPE svg PUBLIC "-//W3C//DTD SVG 20010904//EN">
<svg version="1.0" xmlns="http://www.w3.org/2000/svg"
 width="450.000000pt" height="450.000000pt" viewBox="0 0 450.000000 450.000000"
 preserveAspectRatio="xMidYMid meet">
<metadata>
Created by potrace 1.16, written by Peter Selinger 2001-2019
</metadata>
<g transform="translate(0.000000,450.000000) scale(0.090000,-0.090000)"
fill="#000000" stroke="none">
<path d="M4237 4805 c-79 -22 -77 -16 -77 -211 0 -145 2 -174 14 -174 8 0 18
5 21 10 4 6 30 22 58 37 75 38 159 42 278 13 91 -22 96 -22 152 -6 68 20 97
45 97 84 0 35 -24 57 -70 67 -51 10 -109 47 -159 100 -82 88 -188 115 -314 80z"/>
<path d="M431 4358 c16 -46 32 -90 34 -98 2 -8 4 -16 5 -17 2 -2 3 -6 5 -10 1
-5 9 -24 18 -44 9 -20 17 -42 19 -50 2 -8 6 -16 10 -19 3 -3 8 -14 10 -25 1
-11 6 -22 9 -25 3 -3 41 -78 84 -167 43 -89 84 -164 92 -167 8 -3 12 -2 9 2
-2 4 15 8 39 8 24 0 42 -3 40 -6 -2 -3 38 -5 89 -5 72 0 93 3 93 13 0 27 -43
36 -103 22 -102 -25 -115 -9 -306 392 -115 242 -136 278 -155 278 l-22 0 30
-82z"/>
<path d="M1992 4095 c-12 -9 -27 -35 -34 -58 -16 -55 -52 -112 -95 -152 l-35
-32 87 -80 c65 -61 102 -88 153 -109 37 -15 81 -40 97 -55 l30 -28 40 25 c22
13 68 33 103 45 35 11 89 38 120 60 l57 39 28 -33 c16 -17 51 -78 78 -134 27
-56 55 -105 61 -109 6 -4 8 -3 4 4 -3 6 -1 14 6 19 17 10 39 13 34 4 -3 -4 6
-7 19 -7 16 0 22 5 20 17 -2 11 2 16 13 14 9 -2 17 -4 17 -5 0 -1 7 -3 16 -5
21 -4 19 8 -10 65 -33 64 -106 147 -162 184 -27 17 -49 35 -49 39 0 4 -16 22
-36 39 -43 38 -59 69 -68 130 -4 26 -15 57 -25 69 l-18 22 -114 -21 c-132 -25
-179 -20 -238 27 -48 38 -72 44 -99 26z"/>
<path d="M1540 1691 c0 -128 87 -675 185 -1166 92 -454 79 -416 145 -431 220
-52 443 -84 577 -84 38 0 38 0 71 78 36 84 50 130 57 178 2 18 11 48 19 68 27
64 96 316 121 441 49 242 84 522 101 804 l6 115 -57 -63 c-190 -205 -686 -263
-979 -115 -80 41 -163 105 -208 161 -16 21 -32 40 -34 42 -2 2 -4 -10 -4 -28z
m655 -781 c8 -74 19 -210 25 -303 9 -153 8 -175 -10 -259 -11 -50 -22 -93 -24
-95 -9 -10 -16 156 -20 512 -5 390 -1 409 29 145z"/>
</g>
</svg>
