<svg id="svg" version="1.1" xmlns="http://www.w3.org/2000/svg" xmlns:xlink="http://www.w3.org/1999/xlink" width="200"
     height="45" viewBox="0, 0, 400,89.48374760994264">
    <g id="svgg">
        <path id="path0"
              d="M190.333 17.583 C 190.333 17.782,190.093 17.833,189.167 17.833 C 188.500 17.833,188.000 17.905,188.000 18.000 C 188.000 18.093,187.556 18.167,187.000 18.167 C 186.444 18.167,186.000 18.241,186.000 18.333 C 186.000 18.425,185.588 18.500,185.083 18.500 C 184.579 18.500,184.167 18.575,184.167 18.667 C 184.167 18.758,183.904 18.833,183.583 18.833 C 183.176 18.833,183.000 18.909,183.000 19.083 C 183.000 19.258,182.824 19.333,182.417 19.333 C 182.096 19.333,181.833 19.408,181.833 19.500 C 181.833 19.592,181.646 19.667,181.417 19.667 C 181.188 19.667,181.000 19.742,181.000 19.833 C 181.000 19.925,180.850 20.000,180.667 20.000 C 180.481 20.000,180.333 20.111,180.333 20.250 C 180.333 20.406,180.176 20.500,179.917 20.500 C 179.688 20.500,179.500 20.575,179.500 20.667 C 179.500 20.758,179.350 20.833,179.167 20.833 C 178.983 20.833,178.833 20.908,178.833 21.000 C 178.833 21.092,178.646 21.167,178.417 21.167 C 178.149 21.167,178.000 21.260,178.000 21.428 C 178.000 21.608,177.902 21.658,177.686 21.590 C 177.488 21.527,177.337 21.584,177.275 21.745 C 177.221 21.885,177.025 22.000,176.839 22.000 C 176.652 22.000,176.500 22.075,176.500 22.167 C 176.500 22.258,176.313 22.333,176.083 22.333 C 175.854 22.333,175.667 22.408,175.667 22.500 C 175.667 22.592,175.517 22.667,175.333 22.667 C 175.148 22.667,175.000 22.778,175.000 22.917 C 175.000 23.072,174.843 23.167,174.583 23.167 C 174.354 23.167,174.167 23.242,174.167 23.333 C 174.167 23.425,174.017 23.500,173.833 23.500 C 173.650 23.500,173.500 23.575,173.500 23.667 C 173.500 23.758,173.420 23.833,173.321 23.833 C 173.127 23.833,172.667 24.244,172.667 24.417 C 172.667 24.556,172.222 25.000,172.083 25.000 C 171.939 25.000,171.500 25.447,171.500 25.594 C 171.500 25.741,170.628 26.500,170.458 26.500 C 170.390 26.500,170.333 26.578,170.333 26.674 C 170.333 26.860,169.585 27.667,169.412 27.667 C 169.277 27.667,168.833 28.113,168.833 28.250 C 168.833 28.389,168.389 28.833,168.250 28.833 C 168.113 28.833,167.667 29.277,167.667 29.412 C 167.667 29.546,166.880 30.333,166.746 30.333 C 166.517 30.333,166.167 30.831,166.167 31.155 C 166.167 31.345,166.092 31.500,166.000 31.500 C 165.908 31.500,165.833 31.688,165.833 31.917 C 165.833 32.176,165.739 32.333,165.583 32.333 C 165.444 32.333,165.333 32.481,165.333 32.667 C 165.333 32.850,165.258 33.000,165.167 33.000 C 165.075 33.000,165.000 33.188,165.000 33.417 C 165.000 33.646,164.925 33.833,164.833 33.833 C 164.742 33.833,164.667 33.975,164.667 34.149 C 164.667 34.322,164.554 34.508,164.417 34.560 C 164.279 34.613,164.167 34.809,164.167 34.995 C 164.167 35.181,164.092 35.333,164.000 35.333 C 163.908 35.333,163.833 35.483,163.833 35.667 C 163.833 35.850,163.758 36.000,163.667 36.000 C 163.575 36.000,163.500 36.262,163.500 36.583 C 163.500 36.904,163.425 37.167,163.333 37.167 C 163.242 37.167,163.167 37.542,163.167 38.000 C 163.167 38.630,163.106 38.833,162.917 38.833 C 162.750 38.833,162.667 39.000,162.667 39.333 C 162.667 39.608,162.592 39.833,162.500 39.833 C 162.408 39.833,162.333 40.208,162.333 40.667 C 162.333 41.125,162.258 41.500,162.167 41.500 C 162.061 41.500,162.000 42.750,162.000 44.917 C 162.000 47.083,162.061 48.333,162.167 48.333 C 162.258 48.333,162.333 48.596,162.333 48.917 C 162.333 49.237,162.408 49.500,162.500 49.500 C 162.592 49.500,162.667 49.650,162.667 49.833 C 162.667 50.019,162.778 50.167,162.917 50.167 C 163.056 50.167,163.167 50.315,163.167 50.504 C 163.167 50.901,164.692 52.500,165.071 52.500 C 165.215 52.500,165.333 52.575,165.333 52.667 C 165.333 52.758,165.588 52.833,165.899 52.833 C 166.248 52.833,166.501 52.929,166.560 53.083 C 166.632 53.270,166.931 53.333,167.745 53.333 C 168.601 53.333,168.833 53.280,168.833 53.083 C 168.833 52.909,169.009 52.833,169.417 52.833 C 169.737 52.833,170.000 52.758,170.000 52.667 C 170.000 52.575,170.150 52.500,170.333 52.500 C 170.517 52.500,170.667 52.425,170.667 52.333 C 170.667 52.242,170.854 52.167,171.083 52.167 C 171.313 52.167,171.500 52.086,171.500 51.988 C 171.500 51.794,171.910 51.333,172.083 51.333 C 172.315 51.333,172.667 50.839,172.667 50.512 C 172.667 50.322,172.742 50.167,172.833 50.167 C 172.925 50.167,173.000 49.904,173.000 49.583 C 173.000 49.176,173.075 49.000,173.250 49.000 C 173.459 49.000,173.500 48.657,173.500 46.917 C 173.500 45.639,173.564 44.833,173.667 44.833 C 173.758 44.833,173.833 44.496,173.833 44.083 C 173.833 43.671,173.908 43.333,174.000 43.333 C 174.092 43.333,174.167 42.996,174.167 42.583 C 174.167 42.171,174.242 41.833,174.333 41.833 C 174.425 41.833,174.500 41.571,174.500 41.250 C 174.500 40.843,174.575 40.667,174.750 40.667 C 174.906 40.667,175.000 40.509,175.000 40.250 C 175.000 40.021,175.075 39.833,175.167 39.833 C 175.258 39.833,175.333 39.683,175.333 39.500 C 175.333 39.317,175.408 39.167,175.500 39.167 C 175.592 39.167,175.667 38.979,175.667 38.750 C 175.667 38.491,175.761 38.333,175.917 38.333 C 176.056 38.333,176.167 38.185,176.167 38.000 C 176.167 37.817,176.242 37.667,176.333 37.667 C 176.425 37.667,176.500 37.479,176.500 37.250 C 176.500 37.021,176.575 36.833,176.667 36.833 C 176.758 36.833,176.833 36.646,176.833 36.417 C 176.833 36.188,176.908 36.000,177.000 36.000 C 177.092 36.000,177.167 35.850,177.167 35.667 C 177.167 35.483,177.247 35.333,177.345 35.333 C 177.539 35.333,178.000 34.923,178.000 34.750 C 178.000 34.611,178.444 34.167,178.583 34.167 C 178.722 34.167,179.167 33.722,179.167 33.583 C 179.167 33.447,179.610 33.000,179.746 33.000 C 179.880 33.000,180.667 32.213,180.667 32.079 C 180.667 31.851,181.164 31.500,181.488 31.500 C 181.678 31.500,181.833 31.425,181.833 31.333 C 181.833 31.242,182.096 31.167,182.417 31.167 C 182.824 31.167,183.000 31.091,183.000 30.917 C 183.000 30.742,183.176 30.667,183.583 30.667 C 183.904 30.667,184.167 30.592,184.167 30.500 C 184.167 30.408,184.429 30.333,184.750 30.333 C 185.071 30.333,185.333 30.258,185.333 30.167 C 185.333 30.075,185.671 30.000,186.083 30.000 C 186.496 30.000,186.833 29.925,186.833 29.833 C 186.833 29.735,187.444 29.667,188.333 29.667 C 189.556 29.667,189.833 29.620,189.833 29.417 C 189.833 29.197,191.417 29.167,203.083 29.167 C 214.750 29.167,216.333 29.197,216.333 29.417 C 216.333 29.554,216.467 29.667,216.630 29.667 C 216.793 29.667,217.035 29.817,217.167 30.000 C 217.299 30.183,217.471 30.333,217.549 30.333 C 217.714 30.333,218.167 30.760,218.167 30.917 C 218.167 31.056,218.611 31.500,218.750 31.500 C 218.887 31.500,219.333 31.943,219.333 32.079 C 219.333 32.213,220.120 33.000,220.254 33.000 C 220.390 33.000,220.833 33.447,220.833 33.583 C 220.833 33.722,221.278 34.167,221.417 34.167 C 221.556 34.167,222.000 34.611,222.000 34.750 C 222.000 34.887,222.443 35.333,222.579 35.333 C 222.713 35.333,223.500 36.120,223.500 36.254 C 223.500 36.390,223.947 36.833,224.083 36.833 C 224.222 36.833,224.667 37.278,224.667 37.417 C 224.667 37.553,225.110 38.000,225.246 38.000 C 225.418 38.000,226.167 38.807,226.167 38.992 C 226.167 39.088,226.223 39.167,226.292 39.167 C 226.461 39.167,227.333 39.926,227.333 40.073 C 227.333 40.220,227.772 40.667,227.917 40.667 C 228.056 40.667,228.500 41.111,228.500 41.250 C 228.500 41.387,228.943 41.833,229.079 41.833 C 229.213 41.833,230.000 42.620,230.000 42.754 C 230.000 42.890,230.447 43.333,230.583 43.333 C 230.722 43.333,231.167 43.778,231.167 43.917 C 231.167 44.053,231.610 44.500,231.746 44.500 C 231.918 44.500,232.667 45.307,232.667 45.492 C 232.667 45.588,232.723 45.667,232.792 45.667 C 232.961 45.667,233.833 46.426,233.833 46.573 C 233.833 46.718,234.271 47.167,234.412 47.167 C 234.585 47.167,235.333 47.973,235.333 48.159 C 235.333 48.255,235.412 48.333,235.508 48.333 C 235.693 48.333,236.500 49.082,236.500 49.254 C 236.500 49.390,236.947 49.833,237.083 49.833 C 237.222 49.833,237.667 50.278,237.667 50.417 C 237.667 50.553,238.110 51.000,238.246 51.000 C 238.418 51.000,239.167 51.807,239.167 51.992 C 239.167 52.088,239.223 52.167,239.292 52.167 C 239.461 52.167,240.333 52.926,240.333 53.073 C 240.333 53.218,240.771 53.667,240.912 53.667 C 241.085 53.667,241.833 54.473,241.833 54.659 C 241.833 54.755,241.912 54.833,242.008 54.833 C 242.193 54.833,243.000 55.582,243.000 55.754 C 243.000 55.888,243.446 56.333,243.579 56.333 C 243.751 56.333,244.500 57.140,244.500 57.326 C 244.500 57.422,244.578 57.500,244.674 57.500 C 244.900 57.500,245.667 58.266,245.667 58.492 C 245.667 58.588,245.727 58.667,245.801 58.667 C 246.014 58.667,247.167 59.776,247.167 59.981 C 247.167 60.083,247.245 60.167,247.341 60.167 C 247.567 60.167,248.333 60.933,248.333 61.159 C 248.333 61.255,248.412 61.333,248.508 61.333 C 248.739 61.333,249.500 62.102,249.500 62.336 C 249.500 62.437,249.575 62.473,249.667 62.417 C 249.758 62.360,249.833 62.431,249.833 62.573 C 249.833 62.716,249.912 62.833,250.008 62.833 C 250.234 62.833,251.000 63.600,251.000 63.826 C 251.000 63.922,251.080 64.000,251.179 64.000 C 251.500 64.000,251.833 64.467,251.833 64.917 C 251.833 65.891,253.154 65.833,231.000 65.833 C 213.579 65.833,210.609 65.799,210.405 65.595 C 210.055 65.245,210.108 64.449,210.500 64.167 C 210.683 64.035,210.833 63.830,210.833 63.713 C 210.833 63.596,210.911 63.500,211.006 63.500 C 211.231 63.500,213.500 61.231,213.500 61.006 C 213.500 60.911,213.578 60.833,213.674 60.833 C 213.900 60.833,214.667 60.067,214.667 59.841 C 214.667 59.745,214.744 59.667,214.839 59.667 C 215.064 59.667,217.333 57.397,217.333 57.172 C 217.333 57.078,217.411 57.000,217.506 57.000 C 217.731 57.000,220.000 54.731,220.000 54.506 C 220.000 54.411,220.080 54.333,220.178 54.333 C 220.275 54.333,220.836 53.846,221.423 53.250 C 222.010 52.654,222.567 52.167,222.662 52.167 C 222.756 52.167,222.815 52.103,222.792 52.025 C 222.769 51.948,222.994 51.655,223.292 51.375 C 223.590 51.095,223.833 50.709,223.833 50.516 C 223.833 50.317,223.941 50.167,224.083 50.167 C 224.222 50.167,224.333 50.019,224.333 49.833 C 224.333 49.650,224.408 49.500,224.500 49.500 C 224.592 49.500,224.667 49.313,224.667 49.083 C 224.667 48.854,224.742 48.667,224.833 48.667 C 224.929 48.667,225.000 48.167,225.000 47.500 C 225.000 46.833,224.929 46.333,224.833 46.333 C 224.742 46.333,224.667 46.071,224.667 45.750 C 224.667 45.429,224.592 45.167,224.500 45.167 C 224.408 45.167,224.333 45.017,224.333 44.833 C 224.333 44.650,224.253 44.500,224.155 44.500 C 223.963 44.500,223.500 44.091,223.500 43.921 C 223.500 43.749,222.693 43.000,222.508 43.000 C 222.412 43.000,222.333 42.922,222.333 42.826 C 222.333 42.522,221.529 41.833,221.174 41.833 C 220.987 41.833,220.833 41.758,220.833 41.667 C 220.833 41.568,220.222 41.500,219.333 41.500 C 218.444 41.500,217.833 41.568,217.833 41.667 C 217.833 41.758,217.646 41.833,217.417 41.833 C 217.188 41.833,217.000 41.908,217.000 42.000 C 217.000 42.092,216.850 42.167,216.667 42.167 C 216.483 42.167,216.333 42.242,216.333 42.333 C 216.333 42.425,216.221 42.500,216.083 42.500 C 215.946 42.500,215.833 42.578,215.833 42.674 C 215.833 42.900,215.067 43.667,214.841 43.667 C 214.745 43.667,214.667 43.750,214.667 43.853 C 214.667 44.058,213.514 45.167,213.301 45.167 C 213.227 45.167,213.167 45.245,213.167 45.341 C 213.167 45.567,212.400 46.333,212.174 46.333 C 212.078 46.333,212.000 46.412,212.000 46.508 C 212.000 46.734,211.234 47.500,211.008 47.500 C 210.912 47.500,210.833 47.560,210.833 47.634 C 210.833 47.847,209.724 49.000,209.519 49.000 C 209.417 49.000,209.333 49.078,209.333 49.174 C 209.333 49.400,208.567 50.167,208.341 50.167 C 208.245 50.167,208.167 50.245,208.167 50.341 C 208.167 50.527,207.418 51.333,207.246 51.333 C 207.112 51.333,206.667 51.779,206.667 51.912 C 206.667 52.085,205.860 52.833,205.674 52.833 C 205.578 52.833,205.500 52.912,205.500 53.008 C 205.500 53.193,204.751 54.000,204.579 54.000 C 204.446 54.000,204.000 54.446,204.000 54.579 C 204.000 54.751,203.193 55.500,203.008 55.500 C 202.912 55.500,202.833 55.578,202.833 55.674 C 202.833 55.860,202.085 56.667,201.912 56.667 C 201.777 56.667,201.333 57.113,201.333 57.250 C 201.333 57.389,200.889 57.833,200.750 57.833 C 200.613 57.833,200.167 58.277,200.167 58.412 C 200.167 58.570,199.368 59.333,199.202 59.333 C 199.122 59.333,198.956 59.521,198.833 59.750 C 198.711 59.979,198.548 60.167,198.472 60.167 C 198.396 60.167,198.333 60.309,198.333 60.482 C 198.333 60.656,198.221 60.841,198.083 60.894 C 197.946 60.946,197.833 61.142,197.833 61.328 C 197.833 61.514,197.758 61.667,197.667 61.667 C 197.575 61.667,197.500 61.929,197.500 62.250 C 197.500 62.571,197.425 62.833,197.333 62.833 C 197.228 62.833,197.167 63.944,197.167 65.833 C 197.167 67.722,197.228 68.833,197.333 68.833 C 197.425 68.833,197.500 69.096,197.500 69.417 C 197.500 69.737,197.575 70.000,197.667 70.000 C 197.758 70.000,197.833 70.262,197.833 70.583 C 197.833 70.991,197.909 71.167,198.083 71.167 C 198.239 71.167,198.333 71.324,198.333 71.583 C 198.333 71.813,198.408 72.000,198.500 72.000 C 198.592 72.000,198.667 72.150,198.667 72.333 C 198.667 72.517,198.742 72.667,198.833 72.667 C 198.925 72.667,199.000 72.779,199.000 72.917 C 199.000 73.054,199.078 73.167,199.174 73.167 C 199.415 73.167,200.167 73.939,200.167 74.187 C 200.167 74.298,200.211 74.345,200.265 74.290 C 200.319 74.236,200.613 74.449,200.918 74.763 C 201.223 75.077,201.628 75.333,201.819 75.333 C 202.017 75.333,202.167 75.441,202.167 75.583 C 202.167 75.722,202.315 75.833,202.500 75.833 C 202.683 75.833,202.833 75.908,202.833 76.000 C 202.833 76.092,203.021 76.167,203.250 76.167 C 203.479 76.167,203.667 76.242,203.667 76.333 C 203.667 76.425,203.929 76.500,204.250 76.500 C 204.657 76.500,204.833 76.575,204.833 76.750 C 204.833 76.935,205.028 77.000,205.583 77.000 C 205.996 77.000,206.333 77.075,206.333 77.167 C 206.333 77.277,214.778 77.333,231.333 77.333 C 247.889 77.333,256.333 77.277,256.333 77.167 C 256.333 77.075,256.673 77.000,257.089 77.000 C 257.606 77.000,257.874 76.921,257.940 76.750 C 257.994 76.607,258.243 76.500,258.518 76.500 C 258.783 76.500,259.000 76.425,259.000 76.333 C 259.000 76.242,259.188 76.167,259.417 76.167 C 259.646 76.167,259.833 76.092,259.833 76.000 C 259.833 75.908,260.021 75.833,260.250 75.833 C 260.509 75.833,260.667 75.739,260.667 75.583 C 260.667 75.444,260.815 75.333,261.000 75.333 C 261.183 75.333,261.333 75.258,261.333 75.167 C 261.333 75.075,261.412 75.000,261.508 75.000 C 261.693 75.000,262.500 74.251,262.500 74.079 C 262.500 73.909,262.963 73.500,263.155 73.500 C 263.253 73.500,263.333 73.313,263.333 73.083 C 263.333 72.854,263.408 72.667,263.500 72.667 C 263.592 72.667,263.667 72.517,263.667 72.333 C 263.667 72.150,263.742 72.000,263.833 72.000 C 263.925 72.000,264.000 71.813,264.000 71.583 C 264.000 71.324,264.094 71.167,264.250 71.167 C 264.387 71.167,264.500 71.092,264.500 71.000 C 264.500 70.908,264.382 70.833,264.238 70.833 C 263.810 70.833,264.013 70.093,264.458 70.030 C 264.868 69.972,265.074 64.667,264.667 64.667 C 264.575 64.667,264.500 64.439,264.500 64.161 C 264.500 63.866,264.396 63.616,264.250 63.560 C 264.112 63.508,264.000 63.322,264.000 63.149 C 264.000 62.975,263.925 62.833,263.833 62.833 C 263.742 62.833,263.667 62.646,263.667 62.417 C 263.667 62.188,263.592 62.000,263.500 62.000 C 263.408 62.000,263.333 61.850,263.333 61.667 C 263.333 61.481,263.222 61.333,263.083 61.333 C 262.928 61.333,262.833 61.176,262.833 60.917 C 262.833 60.688,262.758 60.500,262.667 60.500 C 262.575 60.500,262.500 60.354,262.500 60.177 C 262.500 59.999,262.425 59.807,262.333 59.750 C 262.242 59.693,262.167 59.534,262.167 59.395 C 262.167 59.104,261.774 58.667,261.512 58.667 C 261.414 58.667,261.333 58.588,261.333 58.492 C 261.333 58.266,260.567 57.500,260.341 57.500 C 260.245 57.500,260.167 57.422,260.167 57.326 C 260.167 57.140,259.418 56.333,259.246 56.333 C 259.112 56.333,258.667 55.888,258.667 55.754 C 258.667 55.582,257.860 54.833,257.674 54.833 C 257.578 54.833,257.500 54.755,257.500 54.659 C 257.500 54.473,256.751 53.667,256.579 53.667 C 256.446 53.667,256.000 53.221,256.000 53.088 C 256.000 52.915,255.193 52.167,255.008 52.167 C 254.912 52.167,254.833 52.088,254.833 51.992 C 254.833 51.807,254.085 51.000,253.912 51.000 C 253.777 51.000,253.333 50.553,253.333 50.417 C 253.333 50.278,252.889 49.833,252.750 49.833 C 252.613 49.833,252.167 49.390,252.167 49.254 C 252.167 49.082,251.360 48.333,251.174 48.333 C 251.078 48.333,251.000 48.255,251.000 48.159 C 251.000 47.973,250.251 47.167,250.079 47.167 C 249.946 47.167,249.500 46.721,249.500 46.588 C 249.500 46.415,248.693 45.667,248.508 45.667 C 248.412 45.667,248.333 45.588,248.333 45.492 C 248.333 45.307,247.585 44.500,247.412 44.500 C 247.277 44.500,246.833 44.053,246.833 43.917 C 246.833 43.778,246.389 43.333,246.250 43.333 C 246.113 43.333,245.667 42.890,245.667 42.754 C 245.667 42.620,244.880 41.833,244.746 41.833 C 244.610 41.833,244.167 41.387,244.167 41.250 C 244.167 41.111,243.722 40.667,243.583 40.667 C 243.447 40.667,243.000 40.223,243.000 40.088 C 243.000 39.954,242.213 39.167,242.079 39.167 C 241.943 39.167,241.500 38.720,241.500 38.583 C 241.500 38.444,241.056 38.000,240.917 38.000 C 240.778 38.000,240.333 37.556,240.333 37.417 C 240.333 37.278,239.889 36.833,239.750 36.833 C 239.613 36.833,239.167 36.390,239.167 36.254 C 239.167 36.120,238.380 35.333,238.246 35.333 C 238.110 35.333,237.667 34.887,237.667 34.750 C 237.667 34.611,237.222 34.167,237.083 34.167 C 236.947 34.167,236.500 33.723,236.500 33.588 C 236.500 33.454,235.713 32.667,235.579 32.667 C 235.443 32.667,235.000 32.220,235.000 32.083 C 235.000 31.944,234.556 31.500,234.417 31.500 C 234.278 31.500,233.833 31.056,233.833 30.917 C 233.833 30.780,233.390 30.333,233.254 30.333 C 233.120 30.333,232.333 29.546,232.333 29.412 C 232.333 29.277,231.887 28.833,231.750 28.833 C 231.611 28.833,231.167 28.389,231.167 28.250 C 231.167 28.113,230.723 27.667,230.588 27.667 C 230.454 27.667,229.667 26.880,229.667 26.746 C 229.667 26.610,229.220 26.167,229.083 26.167 C 228.944 26.167,228.500 25.722,228.500 25.583 C 228.500 25.444,228.056 25.000,227.917 25.000 C 227.778 25.000,227.333 24.556,227.333 24.417 C 227.333 24.280,226.890 23.833,226.754 23.833 C 226.620 23.833,225.833 23.046,225.833 22.912 C 225.833 22.777,225.387 22.333,225.250 22.333 C 225.111 22.333,224.667 21.889,224.667 21.750 C 224.667 21.613,224.223 21.167,224.088 21.167 C 223.954 21.167,223.167 20.380,223.167 20.246 C 223.167 20.110,222.720 19.667,222.583 19.667 C 222.444 19.667,222.000 19.222,222.000 19.083 C 222.000 18.851,221.505 18.500,221.179 18.500 C 220.989 18.500,220.833 18.425,220.833 18.333 C 220.833 18.242,220.646 18.167,220.417 18.167 C 220.188 18.167,220.000 18.092,220.000 18.000 C 220.000 17.908,219.783 17.833,219.518 17.833 C 219.243 17.833,218.994 17.726,218.940 17.583 C 218.855 17.364,217.106 17.333,204.589 17.333 C 192.028 17.333,190.333 17.363,190.333 17.583 M255.333 17.583 C 255.333 17.758,255.157 17.833,254.750 17.833 C 254.429 17.833,254.167 17.908,254.167 18.000 C 254.167 18.092,253.979 18.167,253.750 18.167 C 253.521 18.167,253.333 18.242,253.333 18.333 C 253.333 18.425,253.183 18.500,253.000 18.500 C 252.817 18.500,252.667 18.575,252.667 18.667 C 252.667 18.758,252.554 18.833,252.417 18.833 C 252.279 18.833,252.167 18.946,252.167 19.083 C 252.167 19.221,252.092 19.333,252.000 19.333 C 251.908 19.333,251.833 19.483,251.833 19.667 C 251.833 19.850,251.758 20.000,251.667 20.000 C 251.575 20.000,251.500 20.188,251.500 20.417 C 251.500 20.676,251.406 20.833,251.250 20.833 C 251.075 20.833,251.000 21.009,251.000 21.417 C 251.000 21.738,250.925 22.000,250.833 22.000 C 250.736 22.000,250.667 22.556,250.667 23.333 C 250.667 24.111,250.736 24.667,250.833 24.667 C 250.925 24.667,251.000 24.929,251.000 25.250 C 251.000 25.657,251.075 25.833,251.250 25.833 C 251.389 25.833,251.500 25.981,251.500 26.167 C 251.500 26.350,251.575 26.500,251.667 26.500 C 251.758 26.500,251.833 26.655,251.833 26.845 C 251.833 27.214,252.194 27.667,252.488 27.667 C 252.586 27.667,252.667 27.742,252.667 27.833 C 252.667 27.925,252.817 28.000,253.000 28.000 C 253.185 28.000,253.333 28.111,253.333 28.250 C 253.333 28.406,253.491 28.500,253.750 28.500 C 253.979 28.500,254.167 28.575,254.167 28.667 C 254.167 28.758,254.429 28.833,254.750 28.833 C 255.071 28.833,255.333 28.908,255.333 29.000 C 255.333 29.109,258.500 29.167,264.500 29.167 C 272.537 29.167,273.667 29.197,273.667 29.417 C 273.667 29.554,273.742 29.667,273.833 29.667 C 273.944 29.667,274.000 36.833,274.000 50.833 C 274.000 64.833,274.056 72.000,274.167 72.000 C 274.258 72.000,274.333 72.262,274.333 72.583 C 274.333 72.991,274.409 73.167,274.583 73.167 C 274.722 73.167,274.833 73.315,274.833 73.500 C 274.833 73.683,274.908 73.833,275.000 73.833 C 275.092 73.833,275.167 73.987,275.167 74.174 C 275.167 74.529,275.855 75.333,276.159 75.333 C 276.255 75.333,276.333 75.414,276.333 75.512 C 276.333 75.806,276.786 76.167,277.155 76.167 C 277.345 76.167,277.500 76.242,277.500 76.333 C 277.500 76.425,277.642 76.500,277.816 76.500 C 277.989 76.500,278.174 76.613,278.227 76.750 C 278.302 76.945,278.635 77.000,279.750 77.000 C 280.865 77.000,281.198 76.945,281.273 76.750 C 281.328 76.607,281.576 76.500,281.851 76.500 C 282.116 76.500,282.333 76.425,282.333 76.333 C 282.333 76.242,282.489 76.167,282.679 76.167 C 283.048 76.167,283.500 75.806,283.500 75.512 C 283.500 75.414,283.612 75.333,283.750 75.333 C 283.889 75.333,284.000 75.185,284.000 75.000 C 284.000 74.817,284.075 74.667,284.167 74.667 C 284.258 74.667,284.333 74.479,284.333 74.250 C 284.333 74.021,284.408 73.833,284.500 73.833 C 284.592 73.833,284.667 73.683,284.667 73.500 C 284.667 73.316,284.778 73.167,284.914 73.167 C 285.132 73.167,285.162 70.547,285.165 51.458 C 285.168 37.234,285.226 29.731,285.334 29.694 C 285.425 29.664,285.500 29.533,285.500 29.403 C 285.500 29.034,362.586 29.048,362.727 29.417 C 362.783 29.563,363.033 29.667,363.328 29.667 C 363.606 29.667,363.833 29.742,363.833 29.833 C 363.833 29.925,364.021 30.000,364.250 30.000 C 364.479 30.000,364.667 30.075,364.667 30.167 C 364.667 30.258,364.817 30.333,365.000 30.333 C 365.183 30.333,365.333 30.408,365.333 30.500 C 365.333 30.592,365.446 30.667,365.583 30.667 C 365.721 30.667,365.833 30.763,365.833 30.880 C 365.833 30.997,365.983 31.201,366.167 31.333 C 366.350 31.465,366.500 31.709,366.500 31.875 C 366.500 32.041,366.613 32.220,366.750 32.273 C 366.893 32.328,367.000 32.576,367.000 32.851 C 367.000 33.116,367.075 33.333,367.167 33.333 C 367.269 33.333,367.333 34.167,367.333 35.500 C 367.333 36.833,367.269 37.667,367.167 37.667 C 367.075 37.667,367.000 37.929,367.000 38.250 C 367.000 38.657,366.925 38.833,366.750 38.833 C 366.613 38.833,366.500 38.967,366.500 39.130 C 366.500 39.293,366.350 39.535,366.167 39.667 C 365.983 39.799,365.833 40.003,365.833 40.120 C 365.833 40.237,365.721 40.333,365.583 40.333 C 365.446 40.333,365.333 40.408,365.333 40.500 C 365.333 40.592,365.183 40.667,365.000 40.667 C 364.817 40.667,364.667 40.742,364.667 40.833 C 364.667 40.925,364.479 41.000,364.250 41.000 C 363.991 41.000,363.833 41.094,363.833 41.250 C 363.833 41.425,363.657 41.500,363.250 41.500 C 362.929 41.500,362.667 41.575,362.667 41.667 C 362.667 41.776,358.611 41.833,350.833 41.833 C 343.056 41.833,339.000 41.890,339.000 42.000 C 339.000 42.092,338.869 42.169,338.708 42.172 C 338.009 42.185,337.305 44.167,338.000 44.167 C 338.092 44.167,338.167 44.317,338.167 44.500 C 338.167 44.683,338.247 44.833,338.345 44.833 C 338.539 44.833,339.000 45.244,339.000 45.417 C 339.000 45.556,339.444 46.000,339.583 46.000 C 339.722 46.000,340.167 46.444,340.167 46.583 C 340.167 46.720,340.610 47.167,340.746 47.167 C 340.880 47.167,341.667 47.954,341.667 48.088 C 341.667 48.223,342.113 48.667,342.250 48.667 C 342.389 48.667,342.833 49.111,342.833 49.250 C 342.833 49.389,343.278 49.833,343.417 49.833 C 343.553 49.833,344.000 50.277,344.000 50.412 C 344.000 50.546,344.787 51.333,344.921 51.333 C 345.057 51.333,345.500 51.780,345.500 51.917 C 345.500 52.056,345.944 52.500,346.083 52.500 C 346.222 52.500,346.667 52.944,346.667 53.083 C 346.667 53.220,347.110 53.667,347.246 53.667 C 347.380 53.667,348.167 54.454,348.167 54.588 C 348.167 54.723,348.613 55.167,348.750 55.167 C 348.889 55.167,349.333 55.611,349.333 55.750 C 349.333 55.887,349.777 56.333,349.912 56.333 C 350.046 56.333,350.833 57.120,350.833 57.254 C 350.833 57.390,351.280 57.833,351.417 57.833 C 351.556 57.833,352.000 58.278,352.000 58.417 C 352.000 58.553,352.443 59.000,352.579 59.000 C 352.751 59.000,353.500 59.807,353.500 59.992 C 353.500 60.088,353.578 60.167,353.674 60.167 C 353.860 60.167,354.667 60.915,354.667 61.088 C 354.667 61.223,355.113 61.667,355.250 61.667 C 355.389 61.667,355.833 62.111,355.833 62.250 C 355.833 62.387,356.277 62.833,356.412 62.833 C 356.585 62.833,357.333 63.640,357.333 63.826 C 357.333 63.922,357.390 64.000,357.458 64.000 C 357.628 64.000,358.500 64.759,358.500 64.906 C 358.500 65.051,358.938 65.500,359.079 65.500 C 359.251 65.500,360.000 66.307,360.000 66.492 C 360.000 66.588,360.078 66.667,360.174 66.667 C 360.360 66.667,361.167 67.415,361.167 67.588 C 361.167 67.721,361.612 68.167,361.746 68.167 C 361.918 68.167,362.667 68.973,362.667 69.159 C 362.667 69.255,362.745 69.333,362.841 69.333 C 363.067 69.333,363.833 70.100,363.833 70.326 C 363.833 70.422,363.894 70.500,363.967 70.500 C 364.181 70.500,365.333 71.609,365.333 71.814 C 365.333 71.916,365.412 72.000,365.508 72.000 C 365.734 72.000,366.500 72.766,366.500 72.992 C 366.500 73.088,366.578 73.167,366.674 73.167 C 366.906 73.167,367.667 73.935,367.667 74.169 C 367.667 74.270,367.742 74.307,367.833 74.250 C 367.925 74.193,368.000 74.264,368.000 74.407 C 368.000 74.550,368.078 74.667,368.174 74.667 C 368.400 74.667,369.167 75.433,369.167 75.659 C 369.167 75.755,369.263 75.833,369.380 75.833 C 369.497 75.833,369.701 75.983,369.833 76.167 C 369.965 76.350,370.199 76.500,370.352 76.500 C 370.506 76.500,370.674 76.612,370.727 76.750 C 370.780 76.887,370.975 77.000,371.161 77.000 C 371.348 77.000,371.500 77.075,371.500 77.167 C 371.500 77.258,371.688 77.333,371.917 77.333 C 372.146 77.333,372.333 77.408,372.333 77.500 C 372.333 77.599,372.944 77.667,373.833 77.667 C 374.722 77.667,375.333 77.599,375.333 77.500 C 375.333 77.408,375.521 77.333,375.750 77.333 C 375.979 77.333,376.167 77.258,376.167 77.167 C 376.167 77.075,376.317 77.000,376.500 77.000 C 376.683 77.000,376.833 76.920,376.833 76.821 C 376.833 76.627,377.244 76.167,377.417 76.167 C 377.590 76.167,378.000 75.706,378.000 75.512 C 378.000 75.414,378.075 75.333,378.167 75.333 C 378.258 75.333,378.333 75.183,378.333 75.000 C 378.333 74.815,378.444 74.667,378.583 74.667 C 378.739 74.667,378.833 74.509,378.833 74.250 C 378.833 74.021,378.908 73.833,379.000 73.833 C 379.092 73.833,379.167 73.683,379.167 73.500 C 379.167 73.317,379.242 73.167,379.333 73.167 C 379.431 73.167,379.500 72.611,379.500 71.833 C 379.500 71.056,379.431 70.500,379.333 70.500 C 379.242 70.500,379.167 70.313,379.167 70.083 C 379.167 69.854,379.092 69.667,379.000 69.667 C 378.908 69.667,378.833 69.514,378.833 69.328 C 378.833 69.142,378.721 68.946,378.583 68.894 C 378.446 68.841,378.333 68.672,378.333 68.519 C 378.333 68.366,378.183 68.132,378.000 68.000 C 377.817 67.868,377.667 67.664,377.667 67.547 C 377.667 67.429,377.588 67.333,377.492 67.333 C 377.307 67.333,376.500 66.585,376.500 66.412 C 376.500 66.279,376.054 65.833,375.921 65.833 C 375.749 65.833,375.000 65.027,375.000 64.841 C 375.000 64.745,374.922 64.667,374.826 64.667 C 374.640 64.667,373.833 63.918,373.833 63.746 C 373.833 63.612,373.388 63.167,373.254 63.167 C 373.082 63.167,372.333 62.360,372.333 62.174 C 372.333 62.078,372.255 62.000,372.159 62.000 C 371.933 62.000,371.167 61.234,371.167 61.008 C 371.167 60.912,371.083 60.833,370.981 60.833 C 370.776 60.833,369.667 59.681,369.667 59.467 C 369.667 59.394,369.588 59.333,369.492 59.333 C 369.266 59.333,368.500 58.567,368.500 58.341 C 368.500 58.245,368.422 58.167,368.327 58.167 C 368.093 58.167,366.843 56.879,366.962 56.761 C 367.013 56.709,366.965 56.667,366.854 56.667 C 366.606 56.667,365.833 55.915,365.833 55.674 C 365.833 55.578,365.755 55.500,365.659 55.500 C 365.433 55.500,364.667 54.734,364.667 54.508 C 364.667 54.412,364.586 54.333,364.488 54.333 C 364.223 54.333,363.833 53.895,363.833 53.595 C 363.833 53.451,363.908 53.333,364.000 53.333 C 364.092 53.333,364.167 53.221,364.167 53.083 C 364.167 52.909,364.343 52.833,364.750 52.833 C 365.071 52.833,365.333 52.758,365.333 52.667 C 365.333 52.575,365.596 52.500,365.917 52.500 C 366.238 52.500,366.500 52.425,366.500 52.333 C 366.500 52.242,366.762 52.167,367.083 52.167 C 367.491 52.167,367.667 52.091,367.667 51.917 C 367.667 51.742,367.843 51.667,368.250 51.667 C 368.571 51.667,368.833 51.592,368.833 51.500 C 368.833 51.408,369.096 51.333,369.417 51.333 C 369.738 51.333,370.000 51.258,370.000 51.167 C 370.000 51.075,370.150 51.000,370.333 51.000 C 370.517 51.000,370.667 50.925,370.667 50.833 C 370.667 50.742,370.854 50.667,371.083 50.667 C 371.343 50.667,371.500 50.572,371.500 50.417 C 371.500 50.261,371.657 50.167,371.917 50.167 C 372.146 50.167,372.333 50.092,372.333 50.000 C 372.333 49.908,372.451 49.833,372.596 49.833 C 372.882 49.833,374.500 48.279,374.500 48.004 C 374.500 47.910,374.575 47.833,374.666 47.833 C 374.944 47.833,376.167 46.558,376.167 46.270 C 376.167 46.121,376.242 46.000,376.333 46.000 C 376.425 46.000,376.500 45.813,376.500 45.583 C 376.500 45.354,376.575 45.167,376.667 45.167 C 376.758 45.167,376.833 45.017,376.833 44.833 C 376.833 44.650,376.908 44.500,377.000 44.500 C 377.092 44.500,377.167 44.313,377.167 44.083 C 377.167 43.824,377.261 43.667,377.417 43.667 C 377.591 43.667,377.667 43.491,377.667 43.083 C 377.667 42.762,377.742 42.500,377.833 42.500 C 377.925 42.500,378.000 42.275,378.000 42.000 C 378.000 41.725,378.075 41.500,378.167 41.500 C 378.259 41.500,378.333 41.056,378.333 40.500 C 378.333 39.722,378.389 39.500,378.583 39.500 C 378.797 39.500,378.833 39.009,378.833 36.083 C 378.833 33.157,378.797 32.667,378.583 32.667 C 378.389 32.667,378.333 32.444,378.333 31.667 C 378.333 31.111,378.259 30.667,378.167 30.667 C 378.075 30.667,378.000 30.442,378.000 30.167 C 378.000 29.892,377.925 29.667,377.833 29.667 C 377.742 29.667,377.667 29.404,377.667 29.083 C 377.667 28.676,377.591 28.500,377.417 28.500 C 377.261 28.500,377.167 28.343,377.167 28.083 C 377.167 27.854,377.092 27.667,377.000 27.667 C 376.908 27.667,376.833 27.517,376.833 27.333 C 376.833 27.150,376.758 27.000,376.667 27.000 C 376.575 27.000,376.500 26.813,376.500 26.583 C 376.500 26.354,376.425 26.167,376.333 26.167 C 376.242 26.167,376.167 26.014,376.167 25.828 C 376.167 25.642,376.054 25.446,375.917 25.394 C 375.779 25.341,375.667 25.156,375.667 24.982 C 375.667 24.809,375.592 24.667,375.500 24.667 C 375.408 24.667,375.333 24.479,375.333 24.250 C 375.333 24.021,375.258 23.833,375.167 23.833 C 375.075 23.833,375.000 23.683,375.000 23.500 C 375.000 23.315,374.889 23.167,374.750 23.167 C 374.613 23.167,374.500 23.089,374.500 22.995 C 374.500 22.673,372.522 20.833,372.175 20.833 C 371.987 20.833,371.833 20.758,371.833 20.667 C 371.833 20.575,371.683 20.500,371.500 20.500 C 371.315 20.500,371.167 20.389,371.167 20.250 C 371.167 20.094,371.009 20.000,370.750 20.000 C 370.521 20.000,370.333 19.925,370.333 19.833 C 370.333 19.742,370.183 19.667,370.000 19.667 C 369.817 19.667,369.667 19.592,369.667 19.500 C 369.667 19.408,369.479 19.333,369.250 19.333 C 368.991 19.333,368.833 19.239,368.833 19.083 C 368.833 18.928,368.676 18.833,368.417 18.833 C 368.188 18.833,368.000 18.758,368.000 18.667 C 368.000 18.575,367.850 18.500,367.667 18.500 C 367.483 18.500,367.333 18.425,367.333 18.333 C 367.333 18.242,366.996 18.167,366.583 18.167 C 366.171 18.167,365.833 18.092,365.833 18.000 C 365.833 17.908,365.458 17.833,365.000 17.833 C 364.370 17.833,364.167 17.772,364.167 17.583 C 364.167 17.362,358.009 17.333,309.750 17.333 C 261.491 17.333,255.333 17.362,255.333 17.583 M35.833 18.333 C 35.833 18.430,35.281 18.500,34.510 18.500 C 33.782 18.500,33.140 18.575,33.083 18.667 C 33.027 18.758,32.760 18.833,32.490 18.833 C 32.166 18.833,32.000 18.918,32.000 19.083 C 32.000 19.272,31.796 19.333,31.167 19.333 C 30.708 19.333,30.333 19.408,30.333 19.500 C 30.333 19.592,29.996 19.667,29.583 19.667 C 29.171 19.667,28.833 19.742,28.833 19.833 C 28.833 19.925,28.496 20.000,28.083 20.000 C 27.528 20.000,27.333 20.065,27.333 20.250 C 27.333 20.425,27.157 20.500,26.750 20.500 C 26.429 20.500,26.167 20.575,26.167 20.667 C 26.167 20.758,26.017 20.833,25.833 20.833 C 25.650 20.833,25.500 20.908,25.500 21.000 C 25.500 21.092,25.313 21.167,25.083 21.167 C 24.816 21.167,24.667 21.260,24.667 21.428 C 24.667 21.613,24.570 21.658,24.333 21.583 C 24.110 21.513,23.965 21.565,23.898 21.739 C 23.843 21.882,23.656 22.000,23.482 22.000 C 23.309 22.000,23.167 22.075,23.167 22.167 C 23.167 22.258,23.011 22.333,22.821 22.333 C 22.452 22.333,22.000 22.694,22.000 22.988 C 22.000 23.086,21.829 23.167,21.620 23.167 C 21.411 23.167,21.132 23.317,21.000 23.500 C 20.868 23.683,20.631 23.833,20.473 23.833 C 20.315 23.833,20.140 23.908,20.083 24.000 C 20.027 24.092,19.835 24.167,19.657 24.167 C 19.479 24.167,19.333 24.247,19.333 24.345 C 19.333 24.539,18.923 25.000,18.750 25.000 C 18.611 25.000,18.167 25.444,18.167 25.583 C 18.167 25.722,17.722 26.167,17.583 26.167 C 17.447 26.167,17.000 26.610,17.000 26.746 C 17.000 26.880,16.213 27.667,16.079 27.667 C 15.909 27.667,15.500 28.130,15.500 28.321 C 15.500 28.420,15.425 28.500,15.333 28.500 C 15.242 28.500,15.167 28.650,15.167 28.833 C 15.167 29.019,15.056 29.167,14.917 29.167 C 14.770 29.167,14.665 29.321,14.663 29.542 C 14.661 29.760,14.417 30.125,14.080 30.415 C 13.761 30.689,13.500 31.045,13.500 31.207 C 13.500 31.368,13.425 31.500,13.333 31.500 C 13.242 31.500,13.167 31.671,13.167 31.880 C 13.167 32.089,13.017 32.368,12.833 32.500 C 12.650 32.632,12.500 32.866,12.500 33.019 C 12.500 33.172,12.387 33.341,12.250 33.394 C 12.112 33.446,12.000 33.642,12.000 33.828 C 12.000 34.014,11.925 34.167,11.833 34.167 C 11.742 34.167,11.667 34.354,11.667 34.583 C 11.667 34.813,11.592 35.000,11.500 35.000 C 11.408 35.000,11.333 35.150,11.333 35.333 C 11.333 35.519,11.222 35.667,11.083 35.667 C 10.909 35.667,10.833 35.843,10.833 36.250 C 10.833 36.571,10.758 36.833,10.667 36.833 C 10.575 36.833,10.500 37.021,10.500 37.250 C 10.500 37.479,10.425 37.667,10.333 37.667 C 10.242 37.667,10.167 37.929,10.167 38.250 C 10.167 38.571,10.092 38.833,10.000 38.833 C 9.908 38.833,9.833 39.171,9.833 39.583 C 9.833 40.139,9.769 40.333,9.583 40.333 C 9.391 40.333,9.333 40.546,9.333 41.250 C 9.333 41.754,9.258 42.167,9.167 42.167 C 9.059 42.167,9.000 43.944,9.000 47.167 C 9.000 50.389,9.059 52.167,9.167 52.167 C 9.258 52.167,9.333 52.579,9.333 53.083 C 9.333 53.787,9.391 54.000,9.583 54.000 C 9.778 54.000,9.833 54.222,9.833 55.000 C 9.833 55.556,9.907 56.000,10.000 56.000 C 10.092 56.000,10.167 56.150,10.167 56.333 C 10.167 56.517,10.242 56.667,10.333 56.667 C 10.425 56.667,10.500 56.929,10.500 57.250 C 10.500 57.571,10.575 57.833,10.667 57.833 C 10.758 57.833,10.833 58.096,10.833 58.417 C 10.833 58.824,10.909 59.000,11.083 59.000 C 11.258 59.000,11.333 59.176,11.333 59.583 C 11.333 59.904,11.408 60.167,11.500 60.167 C 11.592 60.167,11.667 60.317,11.667 60.500 C 11.667 60.683,11.742 60.833,11.833 60.833 C 11.925 60.833,12.000 61.021,12.000 61.250 C 12.000 61.509,12.094 61.667,12.250 61.667 C 12.406 61.667,12.500 61.824,12.500 62.083 C 12.500 62.313,12.575 62.500,12.667 62.500 C 12.758 62.500,12.833 62.650,12.833 62.833 C 12.833 63.017,12.908 63.167,13.000 63.167 C 13.092 63.167,13.167 63.354,13.167 63.583 C 13.167 63.813,13.242 64.000,13.333 64.000 C 13.425 64.000,13.500 64.150,13.500 64.333 C 13.500 64.519,13.611 64.667,13.750 64.667 C 13.906 64.667,14.000 64.824,14.000 65.083 C 14.000 65.313,14.075 65.500,14.167 65.500 C 14.258 65.500,14.333 65.650,14.333 65.833 C 14.333 66.017,14.408 66.167,14.500 66.167 C 14.592 66.167,14.667 66.279,14.667 66.417 C 14.667 66.554,14.745 66.667,14.841 66.667 C 15.067 66.667,15.833 67.433,15.833 67.659 C 15.833 67.755,15.911 67.833,16.006 67.833 C 16.230 67.833,17.333 68.937,17.333 69.161 C 17.333 69.256,17.412 69.333,17.508 69.333 C 17.734 69.333,18.500 70.100,18.500 70.326 C 18.500 70.422,18.580 70.500,18.678 70.500 C 18.775 70.500,19.255 70.913,19.743 71.417 C 20.231 71.921,20.751 72.333,20.899 72.333 C 21.046 72.333,21.167 72.408,21.167 72.500 C 21.167 72.592,21.354 72.667,21.583 72.667 C 21.843 72.667,22.000 72.761,22.000 72.917 C 22.000 73.072,22.157 73.167,22.417 73.167 C 22.646 73.167,22.833 73.242,22.833 73.333 C 22.833 73.425,22.983 73.500,23.167 73.500 C 23.350 73.500,23.500 73.575,23.500 73.667 C 23.500 73.758,23.688 73.833,23.917 73.833 C 24.176 73.833,24.333 73.928,24.333 74.083 C 24.333 74.222,24.481 74.333,24.667 74.333 C 24.850 74.333,25.000 74.408,25.000 74.500 C 25.000 74.592,25.188 74.667,25.417 74.667 C 25.646 74.667,25.833 74.742,25.833 74.833 C 25.833 74.925,25.983 75.000,26.167 75.000 C 26.350 75.000,26.500 75.075,26.500 75.167 C 26.500 75.258,26.688 75.333,26.917 75.333 C 27.176 75.333,27.333 75.428,27.333 75.583 C 27.333 75.739,27.491 75.833,27.750 75.833 C 27.979 75.833,28.167 75.908,28.167 76.000 C 28.167 76.092,28.317 76.167,28.500 76.167 C 28.683 76.167,28.833 76.242,28.833 76.333 C 28.833 76.425,29.163 76.500,29.566 76.500 C 30.063 76.500,30.328 76.580,30.394 76.750 C 30.459 76.921,30.727 77.000,31.245 77.000 C 31.660 77.000,32.000 77.075,32.000 77.167 C 32.000 77.258,32.337 77.333,32.750 77.333 C 33.162 77.333,33.500 77.408,33.500 77.500 C 33.500 77.595,34.000 77.667,34.667 77.667 C 35.333 77.667,35.833 77.738,35.833 77.833 C 35.833 77.943,39.194 78.000,45.583 78.000 C 51.972 78.000,55.333 77.943,55.333 77.833 C 55.333 77.730,56.250 77.667,57.750 77.667 C 59.250 77.667,60.167 77.603,60.167 77.500 C 60.167 77.405,60.667 77.333,61.333 77.333 C 62.000 77.333,62.500 77.262,62.500 77.167 C 62.500 77.075,62.762 77.000,63.083 77.000 C 63.491 77.000,63.667 76.925,63.667 76.750 C 63.667 76.575,63.843 76.500,64.250 76.500 C 64.571 76.500,64.833 76.425,64.833 76.333 C 64.833 76.242,65.096 76.167,65.417 76.167 C 65.737 76.167,66.000 76.092,66.000 76.000 C 66.000 75.908,66.262 75.833,66.583 75.833 C 66.991 75.833,67.167 75.758,67.167 75.583 C 67.167 75.444,67.315 75.333,67.500 75.333 C 67.683 75.333,67.833 75.258,67.833 75.167 C 67.833 75.075,68.021 75.000,68.250 75.000 C 68.479 75.000,68.667 74.925,68.667 74.833 C 68.667 74.742,68.817 74.667,69.000 74.667 C 69.183 74.667,69.333 74.592,69.333 74.500 C 69.333 74.408,69.521 74.333,69.750 74.333 C 69.979 74.333,70.167 74.253,70.167 74.155 C 70.167 73.861,70.619 73.500,70.988 73.500 C 71.178 73.500,71.333 73.425,71.333 73.333 C 71.333 73.242,71.525 73.167,71.760 73.167 C 71.994 73.167,72.148 73.105,72.102 73.030 C 71.991 72.851,72.599 72.333,72.919 72.333 C 73.055 72.333,73.167 72.258,73.167 72.167 C 73.167 72.075,73.279 72.000,73.417 72.000 C 73.554 72.000,73.667 71.920,73.667 71.821 C 73.667 71.553,74.107 71.167,74.412 71.167 C 74.669 71.167,75.500 70.463,75.500 70.246 C 75.500 70.110,75.947 69.667,76.083 69.667 C 76.256 69.667,76.667 69.206,76.667 69.012 C 76.667 68.914,76.742 68.833,76.833 68.833 C 76.925 68.833,77.000 68.683,77.000 68.500 C 77.000 68.317,77.080 68.167,77.179 68.167 C 77.373 68.167,77.833 67.756,77.833 67.583 C 77.833 67.410,78.294 67.000,78.488 67.000 C 78.586 67.000,78.667 66.843,78.667 66.650 C 78.667 66.458,78.892 66.090,79.167 65.833 C 79.442 65.576,79.667 65.209,79.667 65.016 C 79.667 64.824,79.745 64.667,79.841 64.667 C 80.145 64.667,80.833 63.862,80.833 63.508 C 80.833 63.316,80.943 63.167,81.083 63.167 C 81.222 63.167,81.333 63.019,81.333 62.833 C 81.333 62.650,81.408 62.500,81.500 62.500 C 81.592 62.500,81.667 62.237,81.667 61.917 C 81.667 61.596,81.742 61.333,81.833 61.333 C 81.925 61.333,82.000 61.146,82.000 60.917 C 82.000 60.688,82.075 60.500,82.167 60.500 C 82.258 60.500,82.333 60.237,82.333 59.917 C 82.333 59.509,82.409 59.333,82.583 59.333 C 82.758 59.333,82.833 59.157,82.833 58.750 C 82.833 58.429,82.908 58.167,83.000 58.167 C 83.092 58.167,83.167 58.017,83.167 57.833 C 83.167 57.650,83.242 57.500,83.333 57.500 C 83.425 57.500,83.500 57.237,83.500 56.917 C 83.500 56.509,83.575 56.333,83.750 56.333 C 83.935 56.333,84.000 56.139,84.000 55.583 C 84.000 55.171,84.075 54.833,84.167 54.833 C 84.258 54.833,84.333 54.496,84.333 54.083 C 84.333 53.671,84.408 53.333,84.500 53.333 C 84.606 53.333,84.667 52.000,84.667 49.667 C 84.667 47.333,84.606 46.000,84.500 46.000 C 84.408 46.000,84.333 45.770,84.333 45.488 C 84.333 45.025,84.023 44.500,83.750 44.500 C 83.611 44.500,83.167 44.056,83.167 43.917 C 83.167 43.685,82.672 43.333,82.345 43.333 C 82.155 43.333,82.000 43.258,82.000 43.167 C 82.000 43.075,81.858 43.000,81.684 43.000 C 81.511 43.000,81.326 42.887,81.273 42.750 C 81.131 42.381,77.202 42.381,77.060 42.750 C 77.008 42.887,76.822 43.000,76.649 43.000 C 76.475 43.000,76.333 43.075,76.333 43.167 C 76.333 43.258,76.178 43.333,75.988 43.333 C 75.661 43.333,75.167 43.685,75.167 43.917 C 75.167 44.090,74.706 44.500,74.512 44.500 C 74.414 44.500,74.333 44.650,74.333 44.833 C 74.333 45.017,74.258 45.167,74.167 45.167 C 74.075 45.167,74.000 45.354,74.000 45.583 C 74.000 45.813,73.925 46.000,73.833 46.000 C 73.736 46.000,73.667 46.556,73.667 47.333 C 73.667 48.407,73.618 48.667,73.417 48.667 C 73.210 48.667,73.167 48.972,73.167 50.417 C 73.167 51.472,73.101 52.167,73.000 52.167 C 72.908 52.167,72.833 52.579,72.833 53.083 C 72.833 53.587,72.758 54.000,72.667 54.000 C 72.575 54.000,72.500 54.188,72.500 54.417 C 72.500 54.646,72.425 54.833,72.333 54.833 C 72.242 54.833,72.167 54.983,72.167 55.167 C 72.167 55.352,72.056 55.500,71.917 55.500 C 71.761 55.500,71.667 55.657,71.667 55.917 C 71.667 56.146,71.592 56.333,71.500 56.333 C 71.408 56.333,71.333 56.483,71.333 56.667 C 71.333 56.850,71.258 57.000,71.167 57.000 C 71.075 57.000,71.000 57.188,71.000 57.417 C 71.000 57.676,70.906 57.833,70.750 57.833 C 70.594 57.833,70.500 57.991,70.500 58.250 C 70.500 58.479,70.425 58.667,70.333 58.667 C 70.242 58.667,70.167 58.787,70.167 58.935 C 70.167 59.082,69.754 59.602,69.250 60.090 C 68.746 60.579,68.333 61.058,68.333 61.156 C 68.333 61.253,68.255 61.333,68.159 61.333 C 68.063 61.333,67.801 61.517,67.576 61.742 C 67.351 61.967,67.167 62.230,67.167 62.326 C 67.167 62.422,67.071 62.500,66.953 62.500 C 66.836 62.500,66.632 62.650,66.500 62.833 C 66.368 63.017,66.133 63.167,65.977 63.167 C 65.822 63.167,65.668 63.245,65.636 63.341 C 65.605 63.436,65.411 63.527,65.206 63.543 C 65.001 63.558,64.833 63.667,64.833 63.785 C 64.833 63.903,64.646 64.000,64.417 64.000 C 64.188 64.000,64.000 64.075,64.000 64.167 C 64.000 64.258,63.850 64.333,63.667 64.333 C 63.483 64.333,63.333 64.408,63.333 64.500 C 63.333 64.592,63.146 64.667,62.917 64.667 C 62.657 64.667,62.500 64.761,62.500 64.917 C 62.500 65.091,62.324 65.167,61.917 65.167 C 61.596 65.167,61.333 65.242,61.333 65.333 C 61.333 65.425,60.996 65.500,60.583 65.500 C 60.171 65.500,59.833 65.575,59.833 65.667 C 59.833 65.775,57.611 65.833,53.500 65.833 L 47.167 65.833 47.167 57.250 L 47.167 48.667 41.667 48.667 L 36.167 48.667 36.167 57.250 C 36.167 62.861,36.109 65.833,36.000 65.833 C 35.908 65.833,35.833 65.758,35.833 65.667 C 35.833 65.575,35.458 65.500,35.000 65.500 C 34.542 65.500,34.167 65.425,34.167 65.333 C 34.167 65.242,33.829 65.167,33.417 65.167 C 32.861 65.167,32.667 65.102,32.667 64.917 C 32.667 64.742,32.491 64.667,32.083 64.667 C 31.762 64.667,31.500 64.592,31.500 64.500 C 31.500 64.408,31.350 64.333,31.167 64.333 C 30.983 64.333,30.833 64.258,30.833 64.167 C 30.833 64.075,30.571 64.000,30.250 64.000 C 29.843 64.000,29.667 63.925,29.667 63.750 C 29.667 63.594,29.509 63.500,29.250 63.500 C 29.021 63.500,28.833 63.425,28.833 63.333 C 28.833 63.242,28.683 63.167,28.500 63.167 C 28.317 63.167,28.167 63.092,28.167 63.000 C 28.167 62.908,27.979 62.833,27.750 62.833 C 27.521 62.833,27.333 62.758,27.333 62.667 C 27.333 62.575,27.146 62.500,26.917 62.500 C 26.688 62.500,26.500 62.422,26.500 62.326 C 26.500 62.231,25.563 61.217,24.417 60.074 C 23.271 58.930,22.333 57.883,22.333 57.747 C 22.333 57.611,22.258 57.500,22.167 57.500 C 22.075 57.500,22.000 57.313,22.000 57.083 C 22.000 56.854,21.925 56.667,21.833 56.667 C 21.742 56.667,21.667 56.517,21.667 56.333 C 21.667 56.148,21.556 56.000,21.417 56.000 C 21.261 56.000,21.167 55.843,21.167 55.583 C 21.167 55.354,21.092 55.167,21.000 55.167 C 20.908 55.167,20.833 54.904,20.833 54.583 C 20.833 54.262,20.758 54.000,20.667 54.000 C 20.575 54.000,20.500 53.737,20.500 53.417 C 20.500 53.009,20.425 52.833,20.250 52.833 C 20.058 52.833,20.000 52.620,20.000 51.917 C 20.000 51.413,19.925 51.000,19.833 51.000 C 19.728 51.000,19.667 49.861,19.667 47.917 C 19.667 45.972,19.728 44.833,19.833 44.833 C 19.925 44.833,20.000 44.496,20.000 44.083 C 20.000 43.528,20.065 43.333,20.250 43.333 C 20.425 43.333,20.500 43.157,20.500 42.750 C 20.500 42.429,20.575 42.167,20.667 42.167 C 20.758 42.167,20.833 41.904,20.833 41.583 C 20.833 41.262,20.908 41.000,21.000 41.000 C 21.092 41.000,21.167 40.737,21.167 40.417 C 21.167 40.009,21.242 39.833,21.417 39.833 C 21.556 39.833,21.667 39.685,21.667 39.500 C 21.667 39.317,21.742 39.167,21.833 39.167 C 21.925 39.167,22.000 38.979,22.000 38.750 C 22.000 38.521,22.075 38.333,22.167 38.333 C 22.258 38.333,22.333 38.220,22.333 38.082 C 22.333 37.944,22.671 37.499,23.083 37.092 C 23.496 36.685,23.833 36.273,23.833 36.176 C 23.833 36.079,23.913 36.000,24.011 36.000 C 24.109 36.000,24.594 35.587,25.091 35.083 C 25.587 34.579,26.107 34.167,26.246 34.167 C 26.386 34.167,26.500 34.092,26.500 34.000 C 26.500 33.908,26.613 33.833,26.750 33.833 C 26.887 33.833,27.000 33.721,27.000 33.583 C 27.000 33.444,27.148 33.333,27.333 33.333 C 27.517 33.333,27.667 33.258,27.667 33.167 C 27.667 33.075,27.854 33.000,28.083 33.000 C 28.313 33.000,28.500 32.925,28.500 32.833 C 28.500 32.742,28.688 32.667,28.917 32.667 C 29.146 32.667,29.333 32.592,29.333 32.500 C 29.333 32.408,29.483 32.333,29.667 32.333 C 29.852 32.333,30.000 32.222,30.000 32.083 C 30.000 31.909,30.176 31.833,30.583 31.833 C 30.904 31.833,31.167 31.758,31.167 31.667 C 31.167 31.575,31.429 31.500,31.750 31.500 C 32.071 31.500,32.333 31.425,32.333 31.333 C 32.333 31.242,32.596 31.167,32.917 31.167 C 33.324 31.167,33.500 31.091,33.500 30.917 C 33.500 30.742,33.676 30.667,34.083 30.667 C 34.404 30.667,34.667 30.592,34.667 30.500 C 34.667 30.408,35.004 30.333,35.417 30.333 C 35.829 30.333,36.167 30.258,36.167 30.167 C 36.167 30.059,38.111 30.000,41.667 30.000 C 45.222 30.000,47.167 29.941,47.167 29.833 C 47.167 29.742,47.429 29.667,47.750 29.667 C 48.157 29.667,48.333 29.591,48.333 29.417 C 48.333 29.261,48.491 29.167,48.750 29.167 C 48.979 29.167,49.167 29.092,49.167 29.000 C 49.167 28.908,49.317 28.833,49.500 28.833 C 49.683 28.833,49.833 28.758,49.833 28.667 C 49.833 28.575,49.946 28.500,50.083 28.500 C 50.221 28.500,50.333 28.387,50.333 28.250 C 50.333 28.113,50.408 28.000,50.500 28.000 C 50.592 28.000,50.667 27.850,50.667 27.667 C 50.667 27.483,50.742 27.333,50.833 27.333 C 50.925 27.333,51.000 27.146,51.000 26.917 C 51.000 26.657,51.094 26.500,51.250 26.500 C 51.425 26.500,51.500 26.324,51.500 25.917 C 51.500 25.596,51.575 25.333,51.667 25.333 C 51.764 25.333,51.833 24.778,51.833 24.000 C 51.833 23.222,51.764 22.667,51.667 22.667 C 51.575 22.667,51.500 22.439,51.500 22.161 C 51.500 21.866,51.396 21.616,51.250 21.560 C 51.112 21.508,51.000 21.322,51.000 21.149 C 51.000 20.975,50.925 20.833,50.833 20.833 C 50.742 20.833,50.667 20.678,50.667 20.488 C 50.667 20.119,50.306 19.667,50.012 19.667 C 49.914 19.667,49.833 19.592,49.833 19.500 C 49.833 19.408,49.683 19.333,49.500 19.333 C 49.315 19.333,49.167 19.222,49.167 19.083 C 49.167 18.928,49.009 18.833,48.750 18.833 C 48.521 18.833,48.333 18.758,48.333 18.667 C 48.333 18.575,48.071 18.500,47.750 18.500 C 47.429 18.500,47.167 18.425,47.167 18.333 C 47.167 18.225,45.167 18.167,41.500 18.167 C 37.833 18.167,35.833 18.225,35.833 18.333 M76.667 18.667 C 76.667 18.758,76.329 18.833,75.917 18.833 C 75.361 18.833,75.167 18.898,75.167 19.083 C 75.167 19.258,74.991 19.333,74.583 19.333 C 74.262 19.333,74.000 19.408,74.000 19.500 C 74.000 19.592,73.662 19.667,73.250 19.667 C 72.837 19.667,72.500 19.742,72.500 19.833 C 72.500 19.925,72.237 20.000,71.917 20.000 C 71.509 20.000,71.333 20.075,71.333 20.250 C 71.333 20.425,71.157 20.500,70.750 20.500 C 70.429 20.500,70.167 20.575,70.167 20.667 C 70.167 20.758,69.904 20.833,69.583 20.833 C 69.262 20.833,69.000 20.908,69.000 21.000 C 69.000 21.092,68.850 21.167,68.667 21.167 C 68.471 21.167,68.333 21.278,68.333 21.435 C 68.333 21.637,68.232 21.677,67.917 21.598 C 67.609 21.521,67.500 21.560,67.500 21.747 C 67.500 21.906,67.345 22.000,67.083 22.000 C 66.854 22.000,66.667 22.075,66.667 22.167 C 66.667 22.258,66.517 22.333,66.333 22.333 C 66.150 22.333,66.000 22.408,66.000 22.500 C 66.000 22.592,65.813 22.667,65.583 22.667 C 65.324 22.667,65.167 22.761,65.167 22.917 C 65.167 23.056,65.019 23.167,64.833 23.167 C 64.650 23.167,64.500 23.242,64.500 23.333 C 64.500 23.425,64.313 23.500,64.083 23.500 C 63.854 23.500,63.667 23.575,63.667 23.667 C 63.667 23.758,63.492 23.833,63.278 23.833 C 63.034 23.833,62.807 23.988,62.667 24.250 C 62.544 24.479,62.306 24.667,62.139 24.667 C 61.971 24.667,61.833 24.742,61.833 24.833 C 61.833 24.925,61.721 25.000,61.583 25.000 C 61.446 25.000,61.333 25.075,61.333 25.167 C 61.333 25.258,61.183 25.333,61.000 25.333 C 60.815 25.333,60.667 25.444,60.667 25.583 C 60.667 25.721,60.588 25.833,60.492 25.833 C 60.307 25.833,59.500 26.582,59.500 26.754 C 59.500 26.888,59.054 27.333,58.921 27.333 C 58.749 27.333,58.000 28.140,58.000 28.326 C 58.000 28.422,57.922 28.500,57.826 28.500 C 57.600 28.500,56.833 29.266,56.833 29.492 C 56.833 29.588,56.753 29.667,56.655 29.667 C 56.358 29.667,56.000 30.121,56.000 30.498 C 56.000 30.693,55.925 30.807,55.833 30.750 C 55.742 30.693,55.667 30.764,55.667 30.907 C 55.667 31.050,55.592 31.167,55.500 31.167 C 55.408 31.167,55.333 31.317,55.333 31.500 C 55.333 31.685,55.222 31.833,55.083 31.833 C 54.928 31.833,54.833 31.991,54.833 32.250 C 54.833 32.479,54.758 32.667,54.667 32.667 C 54.575 32.667,54.500 32.817,54.500 33.000 C 54.500 33.183,54.425 33.333,54.333 33.333 C 54.242 33.333,54.167 33.446,54.167 33.583 C 54.167 33.721,54.054 33.833,53.917 33.833 C 53.778 33.833,53.667 33.981,53.667 34.167 C 53.667 34.350,53.592 34.500,53.500 34.500 C 53.408 34.500,53.333 34.688,53.333 34.917 C 53.333 35.146,53.258 35.333,53.167 35.333 C 53.075 35.333,53.000 35.483,53.000 35.667 C 53.000 35.850,52.925 36.000,52.833 36.000 C 52.742 36.000,52.667 36.188,52.667 36.417 C 52.667 36.676,52.572 36.833,52.417 36.833 C 52.261 36.833,52.167 36.991,52.167 37.250 C 52.167 37.479,52.092 37.667,52.000 37.667 C 51.908 37.667,51.833 37.929,51.833 38.250 C 51.833 38.571,51.758 38.833,51.667 38.833 C 51.575 38.833,51.500 39.171,51.500 39.583 C 51.500 40.139,51.435 40.333,51.250 40.333 C 51.075 40.333,51.000 40.509,51.000 40.917 C 51.000 41.237,50.925 41.500,50.833 41.500 C 50.742 41.500,50.667 41.837,50.667 42.250 C 50.667 42.662,50.592 43.000,50.500 43.000 C 50.395 43.000,50.333 44.056,50.333 45.833 C 50.333 47.611,50.395 48.667,50.500 48.667 C 50.593 48.667,50.667 49.111,50.667 49.667 C 50.667 50.222,50.741 50.667,50.833 50.667 C 50.925 50.667,51.000 50.892,51.000 51.167 C 51.000 51.500,51.083 51.667,51.250 51.667 C 51.387 51.667,51.500 51.745,51.500 51.841 C 51.500 52.067,52.266 52.833,52.492 52.833 C 52.588 52.833,52.667 52.914,52.667 53.012 C 52.667 53.277,53.105 53.667,53.405 53.667 C 53.549 53.667,53.667 53.742,53.667 53.833 C 53.667 53.925,53.929 54.000,54.250 54.000 C 54.571 54.000,54.833 54.075,54.833 54.167 C 54.833 54.262,55.333 54.333,56.000 54.333 C 56.667 54.333,57.167 54.262,57.167 54.167 C 57.167 54.075,57.429 54.000,57.750 54.000 C 58.071 54.000,58.333 53.925,58.333 53.833 C 58.333 53.742,58.483 53.667,58.667 53.667 C 58.850 53.667,59.000 53.592,59.000 53.500 C 59.000 53.408,59.188 53.333,59.417 53.333 C 59.646 53.333,59.833 53.253,59.833 53.155 C 59.833 52.961,60.244 52.500,60.417 52.500 C 60.649 52.500,61.000 52.005,61.000 51.679 C 61.000 51.489,61.075 51.333,61.167 51.333 C 61.258 51.333,61.333 51.071,61.333 50.750 C 61.333 50.343,61.409 50.167,61.583 50.167 C 61.769 50.167,61.833 49.972,61.833 49.417 C 61.833 49.004,61.908 48.667,62.000 48.667 C 62.101 48.667,62.167 47.917,62.167 46.750 C 62.167 45.583,62.232 44.833,62.333 44.833 C 62.425 44.833,62.500 44.496,62.500 44.083 C 62.500 43.671,62.575 43.333,62.667 43.333 C 62.758 43.333,62.833 43.071,62.833 42.750 C 62.833 42.343,62.909 42.167,63.083 42.167 C 63.222 42.167,63.333 42.019,63.333 41.833 C 63.333 41.650,63.408 41.500,63.500 41.500 C 63.592 41.500,63.667 41.313,63.667 41.083 C 63.667 40.854,63.742 40.667,63.833 40.667 C 63.925 40.667,64.000 40.404,64.000 40.083 C 64.000 39.676,64.075 39.500,64.250 39.500 C 64.406 39.500,64.500 39.343,64.500 39.083 C 64.500 38.854,64.575 38.667,64.667 38.667 C 64.758 38.667,64.833 38.517,64.833 38.333 C 64.833 38.150,64.908 38.000,65.000 38.000 C 65.092 38.000,65.167 37.813,65.167 37.583 C 65.167 37.354,65.242 37.167,65.333 37.167 C 65.425 37.167,65.500 37.017,65.500 36.833 C 65.500 36.648,65.611 36.500,65.750 36.500 C 65.887 36.500,66.000 36.422,66.000 36.326 C 66.000 36.140,66.749 35.333,66.921 35.333 C 67.057 35.333,67.500 34.887,67.500 34.750 C 67.500 34.611,67.944 34.167,68.083 34.167 C 68.256 34.167,68.667 33.706,68.667 33.512 C 68.667 33.414,68.817 33.333,69.000 33.333 C 69.183 33.333,69.333 33.258,69.333 33.167 C 69.333 33.075,69.521 33.000,69.750 33.000 C 69.979 33.000,70.167 32.925,70.167 32.833 C 70.167 32.742,70.354 32.667,70.583 32.667 C 70.813 32.667,71.000 32.592,71.000 32.500 C 71.000 32.408,71.150 32.333,71.333 32.333 C 71.519 32.333,71.667 32.222,71.667 32.083 C 71.667 31.928,71.824 31.833,72.083 31.833 C 72.313 31.833,72.500 31.758,72.500 31.667 C 72.500 31.575,72.650 31.500,72.833 31.500 C 73.017 31.500,73.167 31.425,73.167 31.333 C 73.167 31.242,73.429 31.167,73.750 31.167 C 74.157 31.167,74.333 31.091,74.333 30.917 C 74.333 30.696,76.167 30.667,89.833 30.667 C 103.500 30.667,105.333 30.696,105.333 30.917 C 105.333 31.056,105.482 31.167,105.669 31.167 C 105.880 31.167,106.904 32.069,108.414 33.583 C 109.739 34.912,110.900 36.000,110.995 36.000 C 111.089 36.000,111.167 36.078,111.167 36.172 C 111.167 36.397,113.436 38.667,113.661 38.667 C 113.756 38.667,113.833 38.741,113.833 38.831 C 113.833 39.051,117.274 42.500,117.494 42.500 C 117.589 42.500,117.667 42.578,117.667 42.672 C 117.667 42.897,119.936 45.167,120.161 45.167 C 120.256 45.167,120.333 45.245,120.333 45.341 C 120.333 45.567,121.100 46.333,121.326 46.333 C 121.422 46.333,121.500 46.411,121.500 46.506 C 121.500 46.730,122.604 47.833,122.828 47.833 C 122.923 47.833,123.000 47.912,123.000 48.008 C 123.000 48.234,123.766 49.000,123.992 49.000 C 124.088 49.000,124.167 49.078,124.167 49.172 C 124.167 49.397,126.436 51.667,126.661 51.667 C 126.756 51.667,126.833 51.745,126.833 51.841 C 126.833 52.067,127.600 52.833,127.826 52.833 C 127.922 52.833,128.000 52.911,128.000 53.006 C 128.000 53.230,129.104 54.333,129.328 54.333 C 129.423 54.333,129.500 54.412,129.500 54.508 C 129.500 54.734,130.266 55.500,130.492 55.500 C 130.588 55.500,130.667 55.578,130.667 55.672 C 130.667 55.896,131.770 57.000,131.994 57.000 C 132.089 57.000,132.167 57.078,132.167 57.174 C 132.167 57.400,132.933 58.167,133.159 58.167 C 133.255 58.167,133.333 58.245,133.333 58.341 C 133.333 58.527,134.082 59.333,134.254 59.333 C 134.388 59.333,134.833 59.779,134.833 59.912 C 134.833 60.085,135.640 60.833,135.826 60.833 C 135.922 60.833,136.000 60.912,136.000 61.008 C 136.000 61.234,136.766 62.000,136.992 62.000 C 137.088 62.000,137.167 62.078,137.167 62.172 C 137.167 62.396,138.270 63.500,138.494 63.500 C 138.589 63.500,138.667 63.578,138.667 63.674 C 138.667 63.900,139.433 64.667,139.659 64.667 C 139.755 64.667,139.833 64.779,139.833 64.917 C 139.833 65.054,139.908 65.167,140.000 65.167 C 140.257 65.167,140.197 66.493,139.929 66.762 C 139.570 67.120,98.763 67.120,98.405 66.762 C 98.055 66.412,98.108 65.616,98.500 65.333 C 98.683 65.201,98.833 65.029,98.833 64.951 C 98.833 64.786,99.260 64.333,99.417 64.333 C 99.556 64.333,100.000 63.889,100.000 63.750 C 100.000 63.613,100.443 63.167,100.579 63.167 C 100.713 63.167,101.500 62.380,101.500 62.246 C 101.500 62.110,101.947 61.667,102.083 61.667 C 102.222 61.667,102.667 61.222,102.667 61.083 C 102.667 60.944,103.111 60.500,103.250 60.500 C 103.389 60.500,103.833 60.056,103.833 59.917 C 103.833 59.780,104.277 59.333,104.412 59.333 C 104.546 59.333,105.333 58.546,105.333 58.412 C 105.333 58.277,105.780 57.833,105.917 57.833 C 106.056 57.833,106.500 57.389,106.500 57.250 C 106.500 57.113,106.943 56.667,107.079 56.667 C 107.213 56.667,108.000 55.880,108.000 55.746 C 108.000 55.610,108.447 55.167,108.583 55.167 C 108.722 55.167,109.167 54.722,109.167 54.583 C 109.167 54.447,109.610 54.000,109.746 54.000 C 109.918 54.000,110.667 53.193,110.667 53.008 C 110.667 52.912,110.745 52.833,110.841 52.833 C 111.027 52.833,111.833 52.085,111.833 51.912 C 111.833 51.743,112.296 51.333,112.488 51.333 C 112.586 51.333,112.667 51.183,112.667 51.000 C 112.667 50.817,112.742 50.667,112.833 50.667 C 112.925 50.667,113.000 50.479,113.000 50.250 C 113.000 50.021,113.075 49.833,113.167 49.833 C 113.264 49.833,113.333 49.278,113.333 48.500 C 113.333 47.722,113.264 47.167,113.167 47.167 C 113.075 47.167,113.000 46.979,113.000 46.750 C 113.000 46.521,112.925 46.333,112.833 46.333 C 112.742 46.333,112.667 46.183,112.667 46.000 C 112.667 45.815,112.556 45.667,112.417 45.667 C 112.279 45.667,112.167 45.589,112.167 45.494 C 112.167 45.270,111.063 44.167,110.839 44.167 C 110.744 44.167,110.667 44.088,110.667 43.992 C 110.667 43.689,109.862 43.000,109.508 43.000 C 109.316 43.000,109.167 42.891,109.167 42.750 C 109.167 42.381,105.869 42.381,105.727 42.750 C 105.674 42.887,105.506 43.000,105.352 43.000 C 105.199 43.000,104.965 43.150,104.833 43.333 C 104.701 43.517,104.497 43.667,104.380 43.667 C 104.263 43.667,104.167 43.745,104.167 43.841 C 104.167 44.027,103.418 44.833,103.246 44.833 C 103.105 44.833,102.667 45.282,102.667 45.427 C 102.667 45.574,101.794 46.333,101.625 46.333 C 101.556 46.333,101.500 46.412,101.500 46.508 C 101.500 46.734,100.734 47.500,100.508 47.500 C 100.412 47.500,100.333 47.556,100.333 47.625 C 100.333 47.794,99.574 48.667,99.427 48.667 C 99.282 48.667,98.833 49.105,98.833 49.246 C 98.833 49.418,98.027 50.167,97.841 50.167 C 97.745 50.167,97.667 50.245,97.667 50.341 C 97.667 50.567,96.900 51.333,96.674 51.333 C 96.578 51.333,96.500 51.450,96.500 51.593 C 96.500 51.736,96.425 51.807,96.333 51.750 C 96.242 51.693,96.167 51.736,96.167 51.846 C 96.167 52.053,95.344 52.833,95.125 52.833 C 95.056 52.833,95.000 52.912,95.000 53.008 C 95.000 53.193,94.251 54.000,94.079 54.000 C 93.943 54.000,93.500 54.447,93.500 54.583 C 93.500 54.722,93.056 55.167,92.917 55.167 C 92.780 55.167,92.333 55.610,92.333 55.746 C 92.333 55.880,91.546 56.667,91.412 56.667 C 91.277 56.667,90.833 57.113,90.833 57.250 C 90.833 57.389,90.389 57.833,90.250 57.833 C 90.095 57.833,89.667 58.285,89.667 58.449 C 89.667 58.525,89.465 58.737,89.218 58.919 C 88.971 59.101,88.652 59.390,88.509 59.560 C 88.367 59.731,88.156 59.969,88.042 60.090 C 87.927 60.211,87.833 60.427,87.833 60.571 C 87.833 60.715,87.721 60.833,87.583 60.833 C 87.446 60.833,87.333 60.946,87.333 61.083 C 87.333 61.221,87.258 61.333,87.167 61.333 C 87.075 61.333,87.000 61.483,87.000 61.667 C 87.000 61.850,86.925 62.000,86.833 62.000 C 86.742 62.000,86.667 62.188,86.667 62.417 C 86.667 62.676,86.572 62.833,86.417 62.833 C 86.278 62.833,86.167 62.981,86.167 63.167 C 86.167 63.350,86.092 63.500,86.000 63.500 C 85.908 63.500,85.833 63.688,85.833 63.917 C 85.833 64.146,85.758 64.333,85.667 64.333 C 85.562 64.333,85.500 65.389,85.500 67.167 C 85.500 68.944,85.562 70.000,85.667 70.000 C 85.758 70.000,85.833 70.262,85.833 70.583 C 85.833 70.904,85.908 71.167,86.000 71.167 C 86.092 71.167,86.167 71.354,86.167 71.583 C 86.167 71.843,86.261 72.000,86.417 72.000 C 86.556 72.000,86.667 72.148,86.667 72.333 C 86.667 72.517,86.742 72.667,86.833 72.667 C 86.925 72.667,87.000 72.854,87.000 73.083 C 87.000 73.313,87.075 73.500,87.167 73.500 C 87.258 73.500,87.333 73.624,87.333 73.775 C 87.333 73.926,87.662 74.361,88.065 74.741 C 88.467 75.121,88.824 75.578,88.858 75.757 C 88.901 75.987,89.080 76.099,89.460 76.136 C 89.757 76.164,90.000 76.258,90.000 76.344 C 90.000 76.430,90.188 76.500,90.417 76.500 C 90.676 76.500,90.833 76.594,90.833 76.750 C 90.833 76.906,90.991 77.000,91.250 77.000 C 91.479 77.000,91.667 77.075,91.667 77.167 C 91.667 77.258,91.817 77.333,92.000 77.333 C 92.183 77.333,92.333 77.408,92.333 77.500 C 92.333 77.592,92.596 77.667,92.917 77.667 C 93.237 77.667,93.500 77.742,93.500 77.833 C 93.500 77.925,93.837 78.000,94.250 78.000 C 94.806 78.000,95.000 78.065,95.000 78.250 C 95.000 78.471,97.870 78.500,119.833 78.500 C 141.796 78.500,144.667 78.471,144.667 78.250 C 144.667 78.061,144.870 78.000,145.500 78.000 C 145.958 78.000,146.333 77.925,146.333 77.833 C 146.333 77.742,146.483 77.667,146.667 77.667 C 146.850 77.667,147.000 77.592,147.000 77.500 C 147.000 77.408,147.188 77.333,147.417 77.333 C 147.646 77.333,147.833 77.258,147.833 77.167 C 147.833 77.075,147.983 77.000,148.167 77.000 C 148.352 77.000,148.500 76.889,148.500 76.750 C 148.500 76.601,148.653 76.500,148.880 76.500 C 149.089 76.500,149.368 76.350,149.500 76.167 C 149.632 75.983,149.836 75.833,149.953 75.833 C 150.071 75.833,150.167 75.756,150.167 75.661 C 150.167 75.437,151.368 74.237,151.537 74.292 C 151.608 74.315,151.667 74.221,151.667 74.083 C 151.667 73.946,151.742 73.833,151.833 73.833 C 151.925 73.833,152.000 73.683,152.000 73.500 C 152.000 73.317,152.075 73.167,152.167 73.167 C 152.258 73.167,152.333 72.792,152.333 72.333 C 152.333 71.704,152.394 71.500,152.583 71.500 C 152.796 71.500,152.833 71.056,152.833 68.500 C 152.833 65.944,152.796 65.500,152.583 65.500 C 152.398 65.500,152.333 65.306,152.333 64.750 C 152.333 64.337,152.258 64.000,152.167 64.000 C 152.075 64.000,152.000 63.737,152.000 63.417 C 152.000 63.096,151.925 62.833,151.833 62.833 C 151.742 62.833,151.667 62.646,151.667 62.417 C 151.667 62.188,151.586 62.000,151.488 62.000 C 151.220 62.000,150.833 61.560,150.833 61.254 C 150.833 60.955,150.114 60.167,149.841 60.167 C 149.745 60.167,149.667 60.013,149.667 59.826 C 149.667 59.471,148.978 58.667,148.674 58.667 C 148.578 58.667,148.500 58.589,148.500 58.494 C 148.500 58.269,146.231 56.000,146.006 56.000 C 145.911 56.000,145.833 55.922,145.833 55.826 C 145.833 55.600,145.067 54.833,144.841 54.833 C 144.745 54.833,144.667 54.756,144.667 54.661 C 144.667 54.437,143.563 53.333,143.339 53.333 C 143.244 53.333,143.167 53.255,143.167 53.159 C 143.167 52.933,142.400 52.167,142.174 52.167 C 142.078 52.167,142.000 52.089,142.000 51.994 C 142.000 51.770,140.896 50.667,140.672 50.667 C 140.577 50.667,140.500 50.588,140.500 50.492 C 140.500 50.266,139.734 49.500,139.508 49.500 C 139.412 49.500,139.333 49.422,139.333 49.326 C 139.333 49.100,138.567 48.333,138.341 48.333 C 138.245 48.333,138.167 48.256,138.167 48.161 C 138.167 47.937,137.063 46.833,136.839 46.833 C 136.744 46.833,136.667 46.755,136.667 46.659 C 136.667 46.433,135.900 45.667,135.674 45.667 C 135.578 45.667,135.500 45.589,135.500 45.494 C 135.500 45.270,134.396 44.167,134.172 44.167 C 134.077 44.167,134.000 44.088,134.000 43.992 C 134.000 43.766,133.234 43.000,133.008 43.000 C 132.912 43.000,132.833 42.883,132.833 42.740 C 132.833 42.597,132.758 42.527,132.667 42.583 C 132.575 42.640,132.500 42.602,132.500 42.498 C 132.500 42.296,132.094 41.833,131.917 41.833 C 131.780 41.833,131.333 41.390,131.333 41.254 C 131.333 41.082,130.527 40.333,130.341 40.333 C 130.245 40.333,130.167 40.255,130.167 40.159 C 130.167 39.973,129.418 39.167,129.246 39.167 C 129.110 39.167,128.667 38.720,128.667 38.583 C 128.667 38.444,128.222 38.000,128.083 38.000 C 127.947 38.000,127.500 37.557,127.500 37.421 C 127.500 37.249,126.693 36.500,126.508 36.500 C 126.412 36.500,126.333 36.422,126.333 36.326 C 126.333 36.140,125.585 35.333,125.412 35.333 C 125.279 35.333,124.833 34.888,124.833 34.754 C 124.833 34.582,124.027 33.833,123.841 33.833 C 123.745 33.833,123.667 33.755,123.667 33.659 C 123.667 33.473,122.918 32.667,122.746 32.667 C 122.610 32.667,122.167 32.220,122.167 32.083 C 122.167 31.944,121.722 31.500,121.583 31.500 C 121.406 31.500,121.000 31.037,121.000 30.835 C 121.000 30.732,120.925 30.693,120.833 30.750 C 120.742 30.807,120.667 30.768,120.667 30.665 C 120.667 30.463,120.261 30.000,120.083 30.000 C 119.944 30.000,119.500 29.556,119.500 29.417 C 119.500 29.278,119.056 28.833,118.917 28.833 C 118.780 28.833,118.333 28.390,118.333 28.254 C 118.333 28.120,117.546 27.333,117.412 27.333 C 117.277 27.333,116.833 26.887,116.833 26.750 C 116.833 26.611,116.389 26.167,116.250 26.167 C 116.111 26.167,115.667 25.722,115.667 25.583 C 115.667 25.444,115.222 25.000,115.083 25.000 C 114.947 25.000,114.500 24.557,114.500 24.421 C 114.500 24.287,113.713 23.500,113.579 23.500 C 113.443 23.500,113.000 23.053,113.000 22.917 C 113.000 22.778,112.556 22.333,112.417 22.333 C 112.280 22.333,111.833 21.890,111.833 21.754 C 111.833 21.582,111.027 20.833,110.841 20.833 C 110.745 20.833,110.667 20.758,110.667 20.667 C 110.667 20.575,110.517 20.500,110.333 20.500 C 110.148 20.500,110.000 20.389,110.000 20.250 C 110.000 20.094,109.843 20.000,109.583 20.000 C 109.354 20.000,109.167 19.925,109.167 19.833 C 109.167 19.742,108.979 19.667,108.750 19.667 C 108.521 19.667,108.333 19.592,108.333 19.500 C 108.333 19.408,108.183 19.333,108.000 19.333 C 107.815 19.333,107.667 19.222,107.667 19.083 C 107.667 18.909,107.491 18.833,107.083 18.833 C 106.763 18.833,106.500 18.758,106.500 18.667 C 106.500 18.557,101.417 18.500,91.583 18.500 C 81.750 18.500,76.667 18.557,76.667 18.667 M40.667 39.000 C 40.667 39.092,40.446 39.167,40.177 39.167 C 39.907 39.167,39.640 39.242,39.583 39.333 C 39.527 39.425,39.335 39.500,39.157 39.500 C 38.979 39.500,38.833 39.575,38.833 39.667 C 38.833 39.758,38.646 39.833,38.417 39.833 C 38.188 39.833,38.000 39.917,38.000 40.019 C 38.000 40.121,37.735 40.447,37.412 40.744 C 37.015 41.107,36.858 41.371,36.930 41.558 C 37.001 41.744,36.948 41.833,36.768 41.833 C 36.611 41.833,36.500 41.972,36.500 42.167 C 36.500 42.350,36.425 42.500,36.333 42.500 C 36.242 42.500,36.167 42.875,36.167 43.333 C 36.167 43.792,36.092 44.167,36.000 44.167 C 35.743 44.167,35.803 45.493,36.071 45.762 C 36.268 45.959,37.279 46.000,41.917 46.000 C 46.554 46.000,47.565 45.959,47.762 45.762 C 48.031 45.493,48.090 44.167,47.833 44.167 C 47.742 44.167,47.667 43.827,47.667 43.411 C 47.667 42.894,47.588 42.626,47.417 42.560 C 47.279 42.508,47.167 42.322,47.167 42.149 C 47.167 41.975,47.092 41.833,47.000 41.833 C 46.908 41.833,46.833 41.678,46.833 41.488 C 46.833 41.161,46.482 40.667,46.250 40.667 C 46.077 40.667,45.667 40.206,45.667 40.012 C 45.667 39.914,45.517 39.833,45.333 39.833 C 45.150 39.833,45.000 39.758,45.000 39.667 C 45.000 39.575,44.813 39.500,44.583 39.500 C 44.354 39.500,44.167 39.425,44.167 39.333 C 44.167 39.242,43.904 39.167,43.583 39.167 C 43.262 39.167,43.000 39.092,43.000 39.000 C 43.000 38.905,42.500 38.833,41.833 38.833 C 41.167 38.833,40.667 38.905,40.667 39.000 M189.167 41.667 C 189.167 41.758,188.904 41.833,188.583 41.833 C 188.262 41.833,188.000 41.908,188.000 42.000 C 188.000 42.092,187.845 42.167,187.655 42.167 C 187.328 42.167,186.833 42.518,186.833 42.750 C 186.833 42.923,186.373 43.333,186.179 43.333 C 186.080 43.333,186.000 43.521,186.000 43.750 C 186.000 43.979,185.925 44.167,185.833 44.167 C 185.742 44.167,185.667 44.317,185.667 44.500 C 185.667 44.683,185.592 44.833,185.500 44.833 C 185.401 44.833,185.333 45.439,185.333 46.316 C 185.333 47.479,185.280 47.818,185.083 47.894 C 184.890 47.968,184.833 48.292,184.833 49.328 C 184.833 50.109,184.764 50.667,184.667 50.667 C 184.575 50.667,184.500 51.079,184.500 51.583 C 184.500 52.087,184.425 52.500,184.333 52.500 C 184.242 52.500,184.167 52.754,184.167 53.066 C 184.167 53.414,184.071 53.668,183.917 53.727 C 183.771 53.783,183.667 54.033,183.667 54.328 C 183.667 54.606,183.592 54.833,183.500 54.833 C 183.408 54.833,183.333 54.983,183.333 55.167 C 183.333 55.350,183.258 55.500,183.167 55.500 C 183.075 55.500,183.000 55.688,183.000 55.917 C 183.000 56.146,182.925 56.333,182.833 56.333 C 182.742 56.333,182.667 56.475,182.667 56.649 C 182.667 56.822,182.554 57.008,182.417 57.060 C 182.279 57.113,182.167 57.309,182.167 57.495 C 182.167 57.681,182.092 57.833,182.000 57.833 C 181.908 57.833,181.833 58.021,181.833 58.250 C 181.833 58.479,181.758 58.667,181.667 58.667 C 181.575 58.667,181.500 58.817,181.500 59.000 C 181.500 59.185,181.389 59.333,181.250 59.333 C 181.112 59.333,181.000 59.394,181.000 59.467 C 181.000 59.681,179.891 60.833,179.686 60.833 C 179.584 60.833,179.500 60.914,179.500 61.012 C 179.500 61.306,179.048 61.667,178.679 61.667 C 178.489 61.667,178.333 61.742,178.333 61.833 C 178.333 61.925,178.183 62.000,178.000 62.000 C 177.815 62.000,177.667 62.111,177.667 62.250 C 177.667 62.406,177.509 62.500,177.250 62.500 C 177.021 62.500,176.833 62.575,176.833 62.667 C 176.833 62.758,176.683 62.833,176.500 62.833 C 176.317 62.833,176.167 62.908,176.167 63.000 C 176.167 63.092,175.979 63.167,175.750 63.167 C 175.521 63.167,175.333 63.242,175.333 63.333 C 175.333 63.425,175.181 63.500,174.995 63.500 C 174.809 63.500,174.613 63.612,174.560 63.750 C 174.495 63.920,174.229 64.000,173.732 64.000 C 173.329 64.000,173.000 64.075,173.000 64.167 C 173.000 64.258,172.662 64.333,172.250 64.333 C 171.838 64.333,171.500 64.408,171.500 64.500 C 171.500 64.608,169.417 64.667,165.583 64.667 C 160.435 64.667,159.667 64.699,159.667 64.917 C 159.667 65.091,159.491 65.167,159.083 65.167 C 158.762 65.167,158.500 65.242,158.500 65.333 C 158.500 65.425,158.313 65.500,158.083 65.500 C 157.854 65.500,157.667 65.575,157.667 65.667 C 157.667 65.758,157.549 65.833,157.405 65.833 C 157.105 65.833,156.667 66.223,156.667 66.488 C 156.667 66.586,156.588 66.667,156.492 66.667 C 156.189 66.667,155.500 67.471,155.500 67.826 C 155.500 68.018,155.391 68.167,155.250 68.167 C 155.112 68.167,155.000 68.312,155.000 68.490 C 155.000 68.668,154.925 68.860,154.833 68.917 C 154.740 68.974,154.667 69.752,154.667 70.677 C 154.667 71.670,154.733 72.333,154.833 72.333 C 154.925 72.333,155.000 72.486,155.000 72.672 C 155.000 72.858,155.112 73.054,155.250 73.106 C 155.387 73.159,155.500 73.344,155.500 73.518 C 155.500 73.691,155.575 73.833,155.667 73.833 C 155.758 73.833,155.833 73.914,155.833 74.012 C 155.833 74.204,156.243 74.667,156.412 74.667 C 156.585 74.667,157.333 75.473,157.333 75.659 C 157.333 75.755,157.521 75.833,157.750 75.833 C 157.979 75.833,158.167 75.908,158.167 76.000 C 158.167 76.092,158.317 76.167,158.500 76.167 C 158.683 76.167,158.833 76.242,158.833 76.333 C 158.833 76.425,159.208 76.500,159.667 76.500 C 160.296 76.500,160.500 76.561,160.500 76.750 C 160.500 76.966,161.112 77.000,165.005 77.000 C 168.856 77.000,169.524 76.964,169.606 76.750 C 169.680 76.557,170.002 76.500,171.018 76.500 C 171.784 76.500,172.333 76.430,172.333 76.333 C 172.333 76.242,172.671 76.167,173.083 76.167 C 173.496 76.167,173.833 76.092,173.833 76.000 C 173.833 75.908,174.096 75.833,174.417 75.833 C 174.824 75.833,175.000 75.758,175.000 75.583 C 175.000 75.398,175.194 75.333,175.750 75.333 C 176.162 75.333,176.500 75.258,176.500 75.167 C 176.500 75.075,176.762 75.000,177.083 75.000 C 177.404 75.000,177.667 74.925,177.667 74.833 C 177.667 74.742,177.817 74.667,178.000 74.667 C 178.183 74.667,178.333 74.592,178.333 74.500 C 178.333 74.408,178.521 74.333,178.750 74.333 C 179.009 74.333,179.167 74.239,179.167 74.083 C 179.167 73.928,179.324 73.833,179.583 73.833 C 179.813 73.833,180.000 73.758,180.000 73.667 C 180.000 73.575,180.150 73.500,180.333 73.500 C 180.517 73.500,180.667 73.425,180.667 73.333 C 180.667 73.242,180.854 73.167,181.083 73.167 C 181.343 73.167,181.500 73.072,181.500 72.917 C 181.500 72.778,181.648 72.667,181.833 72.667 C 182.017 72.667,182.167 72.592,182.167 72.500 C 182.167 72.408,182.354 72.333,182.583 72.333 C 182.813 72.333,183.000 72.258,183.000 72.167 C 183.000 72.075,183.150 72.000,183.333 72.000 C 183.519 72.000,183.667 71.889,183.667 71.750 C 183.667 71.601,183.820 71.500,184.047 71.500 C 184.255 71.500,184.535 71.350,184.667 71.167 C 184.799 70.983,184.971 70.833,185.049 70.833 C 185.214 70.833,185.667 70.406,185.667 70.250 C 185.667 70.111,186.111 69.667,186.250 69.667 C 186.387 69.667,186.833 69.223,186.833 69.088 C 186.833 68.954,187.620 68.167,187.754 68.167 C 187.890 68.167,188.333 67.720,188.333 67.583 C 188.333 67.444,188.778 67.000,188.917 67.000 C 189.053 67.000,189.500 66.557,189.500 66.421 C 189.500 66.287,190.287 65.500,190.421 65.500 C 190.649 65.500,191.000 65.003,191.000 64.679 C 191.000 64.489,191.075 64.333,191.167 64.333 C 191.258 64.333,191.333 64.146,191.333 63.917 C 191.333 63.657,191.428 63.500,191.583 63.500 C 191.722 63.500,191.833 63.352,191.833 63.167 C 191.833 62.983,191.908 62.833,192.000 62.833 C 192.092 62.833,192.167 62.646,192.167 62.417 C 192.167 62.188,192.242 62.000,192.333 62.000 C 192.425 62.000,192.500 61.858,192.500 61.684 C 192.500 61.511,192.612 61.326,192.750 61.273 C 192.887 61.220,193.000 61.025,193.000 60.839 C 193.000 60.652,193.075 60.500,193.167 60.500 C 193.258 60.500,193.333 60.313,193.333 60.083 C 193.333 59.854,193.408 59.667,193.500 59.667 C 193.592 59.667,193.667 59.517,193.667 59.333 C 193.667 59.150,193.742 59.000,193.833 59.000 C 193.925 59.000,194.000 58.813,194.000 58.583 C 194.000 58.324,194.094 58.167,194.250 58.167 C 194.389 58.167,194.500 58.019,194.500 57.833 C 194.500 57.650,194.575 57.500,194.667 57.500 C 194.758 57.500,194.833 57.313,194.833 57.083 C 194.833 56.854,194.908 56.667,195.000 56.667 C 195.092 56.667,195.167 56.329,195.167 55.917 C 195.167 55.361,195.231 55.167,195.417 55.167 C 195.591 55.167,195.667 54.991,195.667 54.583 C 195.667 54.262,195.742 54.000,195.833 54.000 C 195.925 54.000,196.000 53.587,196.000 53.083 C 196.000 52.579,196.075 52.167,196.167 52.167 C 196.259 52.167,196.333 51.722,196.333 51.167 C 196.333 50.611,196.407 50.167,196.500 50.167 C 196.603 50.167,196.667 49.306,196.667 47.917 C 196.667 46.528,196.603 45.667,196.500 45.667 C 196.408 45.667,196.333 45.404,196.333 45.083 C 196.333 44.762,196.258 44.500,196.167 44.500 C 196.075 44.500,196.000 44.313,196.000 44.083 C 196.000 43.854,195.925 43.667,195.833 43.667 C 195.742 43.667,195.667 43.517,195.667 43.333 C 195.667 43.148,195.556 43.000,195.417 43.000 C 195.279 43.000,195.167 42.883,195.167 42.740 C 195.167 42.597,195.092 42.527,195.000 42.583 C 194.908 42.640,194.833 42.569,194.833 42.427 C 194.833 42.260,194.683 42.167,194.417 42.167 C 194.188 42.167,194.000 42.092,194.000 42.000 C 194.000 41.908,193.775 41.833,193.500 41.833 C 193.225 41.833,193.000 41.758,193.000 41.667 C 193.000 41.565,192.250 41.500,191.083 41.500 C 189.917 41.500,189.167 41.565,189.167 41.667 M302.333 41.667 C 302.333 41.758,302.071 41.833,301.750 41.833 C 301.429 41.833,301.167 41.908,301.167 42.000 C 301.167 42.092,300.979 42.167,300.750 42.167 C 300.521 42.167,300.333 42.242,300.333 42.333 C 300.333 42.425,300.183 42.500,300.000 42.500 C 299.815 42.500,299.667 42.611,299.667 42.750 C 299.667 42.887,299.586 43.000,299.488 43.000 C 299.194 43.000,298.833 43.452,298.833 43.821 C 298.833 44.011,298.758 44.167,298.667 44.167 C 298.575 44.167,298.500 44.317,298.500 44.500 C 298.500 44.683,298.425 44.833,298.333 44.833 C 298.242 44.833,298.167 45.096,298.167 45.417 C 298.167 45.824,298.091 46.000,297.917 46.000 C 297.713 46.000,297.667 46.278,297.667 47.500 C 297.667 48.722,297.713 49.000,297.917 49.000 C 298.091 49.000,298.167 49.176,298.167 49.583 C 298.167 49.904,298.242 50.167,298.333 50.167 C 298.425 50.167,298.500 50.354,298.500 50.583 C 298.500 50.813,298.575 51.000,298.667 51.000 C 298.758 51.000,298.833 51.118,298.833 51.263 C 298.833 51.603,299.730 52.500,300.071 52.500 C 300.215 52.500,300.333 52.575,300.333 52.667 C 300.333 52.758,300.521 52.833,300.750 52.833 C 301.009 52.833,301.167 52.928,301.167 53.083 C 301.167 53.258,301.343 53.333,301.750 53.333 C 302.071 53.333,302.333 53.408,302.333 53.500 C 302.333 53.610,306.583 53.667,314.750 53.667 C 322.917 53.667,327.167 53.610,327.167 53.500 C 327.167 53.408,327.429 53.333,327.750 53.333 C 328.157 53.333,328.333 53.258,328.333 53.083 C 328.333 52.944,328.481 52.833,328.667 52.833 C 328.850 52.833,329.000 52.758,329.000 52.667 C 329.000 52.575,329.155 52.500,329.345 52.500 C 329.714 52.500,330.167 52.139,330.167 51.845 C 330.167 51.747,330.279 51.667,330.417 51.667 C 330.556 51.667,330.667 51.519,330.667 51.333 C 330.667 51.150,330.742 51.000,330.833 51.000 C 330.925 51.000,331.000 50.813,331.000 50.583 C 331.000 50.354,331.075 50.167,331.167 50.167 C 331.258 50.167,331.333 49.904,331.333 49.583 C 331.333 49.262,331.408 49.000,331.500 49.000 C 331.599 49.000,331.667 48.389,331.667 47.500 C 331.667 46.611,331.599 46.000,331.500 46.000 C 331.408 46.000,331.333 45.737,331.333 45.417 C 331.333 45.096,331.258 44.833,331.167 44.833 C 331.075 44.833,331.000 44.683,331.000 44.500 C 331.000 44.317,330.925 44.167,330.833 44.167 C 330.742 44.167,330.667 43.979,330.667 43.750 C 330.667 43.521,330.586 43.333,330.488 43.333 C 330.257 43.333,329.833 42.909,329.833 42.679 C 329.833 42.580,329.646 42.500,329.417 42.500 C 329.188 42.500,329.000 42.425,329.000 42.333 C 329.000 42.242,328.850 42.167,328.667 42.167 C 328.483 42.167,328.333 42.092,328.333 42.000 C 328.333 41.908,328.071 41.833,327.750 41.833 C 327.429 41.833,327.167 41.758,327.167 41.667 C 327.167 41.557,322.917 41.500,314.750 41.500 C 306.583 41.500,302.333 41.557,302.333 41.667 M302.333 65.333 C 302.333 65.425,302.071 65.500,301.750 65.500 C 301.429 65.500,301.167 65.575,301.167 65.667 C 301.167 65.758,300.979 65.833,300.750 65.833 C 300.483 65.833,300.333 65.927,300.333 66.095 C 300.333 66.280,300.237 66.325,300.000 66.250 C 299.763 66.175,299.667 66.220,299.667 66.405 C 299.667 66.549,299.586 66.667,299.488 66.667 C 299.194 66.667,298.833 67.119,298.833 67.488 C 298.833 67.678,298.758 67.833,298.667 67.833 C 298.575 67.833,298.500 67.983,298.500 68.167 C 298.500 68.350,298.425 68.500,298.333 68.500 C 298.242 68.500,298.167 68.762,298.167 69.083 C 298.167 69.491,298.091 69.667,297.917 69.667 C 297.710 69.667,297.667 69.972,297.667 71.417 C 297.667 72.861,297.710 73.167,297.917 73.167 C 298.091 73.167,298.167 73.343,298.167 73.750 C 298.167 74.071,298.242 74.333,298.333 74.333 C 298.425 74.333,298.500 74.483,298.500 74.667 C 298.500 74.850,298.575 75.000,298.667 75.000 C 298.758 75.000,298.833 75.155,298.833 75.345 C 298.833 75.714,299.194 76.167,299.488 76.167 C 299.586 76.167,299.667 76.242,299.667 76.333 C 299.667 76.425,299.809 76.500,299.982 76.500 C 300.156 76.500,300.341 76.612,300.394 76.750 C 300.446 76.887,300.642 77.000,300.828 77.000 C 301.014 77.000,301.167 77.075,301.167 77.167 C 301.167 77.258,301.429 77.333,301.750 77.333 C 302.071 77.333,302.333 77.408,302.333 77.500 C 302.333 77.610,306.583 77.667,314.750 77.667 C 322.917 77.667,327.167 77.610,327.167 77.500 C 327.167 77.408,327.429 77.333,327.750 77.333 C 328.071 77.333,328.333 77.258,328.333 77.167 C 328.333 77.075,328.483 77.000,328.667 77.000 C 328.852 77.000,329.000 76.889,329.000 76.750 C 329.000 76.601,329.153 76.500,329.380 76.500 C 329.589 76.500,329.868 76.350,330.000 76.167 C 330.132 75.983,330.336 75.833,330.453 75.833 C 330.571 75.833,330.667 75.646,330.667 75.417 C 330.667 75.188,330.742 75.000,330.833 75.000 C 330.925 75.000,331.000 74.850,331.000 74.667 C 331.000 74.483,331.075 74.333,331.167 74.333 C 331.258 74.333,331.333 74.071,331.333 73.750 C 331.333 73.429,331.408 73.167,331.500 73.167 C 331.601 73.167,331.667 72.472,331.667 71.417 C 331.667 70.361,331.601 69.667,331.500 69.667 C 331.408 69.667,331.333 69.404,331.333 69.083 C 331.333 68.762,331.258 68.500,331.167 68.500 C 331.075 68.500,331.000 68.350,331.000 68.167 C 331.000 67.983,330.925 67.833,330.833 67.833 C 330.742 67.833,330.667 67.646,330.667 67.417 C 330.667 67.188,330.586 67.000,330.488 67.000 C 330.256 67.000,329.833 66.575,329.833 66.342 C 329.833 66.231,329.670 66.201,329.417 66.265 C 329.102 66.344,329.000 66.304,329.000 66.101 C 329.000 65.944,328.862 65.833,328.667 65.833 C 328.483 65.833,328.333 65.758,328.333 65.667 C 328.333 65.575,328.071 65.500,327.750 65.500 C 327.429 65.500,327.167 65.425,327.167 65.333 C 327.167 65.224,322.917 65.167,314.750 65.167 C 306.583 65.167,302.333 65.224,302.333 65.333 "
              stroke="none" fill="#1c84f4" fill-rule="evenodd"></path>
        <path id="path1"
              d="M264.111 70.111 C 263.828 70.395,264.013 70.833,264.417 70.833 C 264.750 70.833,264.833 70.750,264.833 70.417 C 264.833 70.013,264.395 69.828,264.111 70.111 "
              stroke="none" fill="#2084f4" fill-rule="evenodd"></path>
        <path id="path2"
              d="M264.111 70.111 C 263.828 70.395,264.013 70.833,264.417 70.833 C 264.750 70.833,264.833 70.750,264.833 70.417 C 264.833 70.013,264.395 69.828,264.111 70.111 "
              stroke="none" fill="#2084f4" fill-rule="evenodd"></path>
        <path id="path3"
              d="M264.111 70.111 C 263.828 70.395,264.013 70.833,264.417 70.833 C 264.750 70.833,264.833 70.750,264.833 70.417 C 264.833 70.013,264.395 69.828,264.111 70.111 "
              stroke="none" fill="#2084f4" fill-rule="evenodd"></path>
        <path id="path4"
              d="M264.111 70.111 C 263.828 70.395,264.013 70.833,264.417 70.833 C 264.750 70.833,264.833 70.750,264.833 70.417 C 264.833 70.013,264.395 69.828,264.111 70.111 "
              stroke="none" fill="#2084f4" fill-rule="evenodd"></path>
    </g>
</svg>